Mihey Regular.ufo
<glyph name="numbersign" format="2">
  <advance width="476"/>
  <unicode hex="0023"/>
  <outline>
    <contour>
      <point x="255" y="-8" type="line"/>
      <point x="277" y="165" type="line"/>
      <point x="171" y="166" type="line"/>
      <point x="149" y="-8" type="line"/>
      <point x="106" y="-8" type="line"/>
      <point x="128" y="166" type="line"/>
      <point x="17" y="166" type="line"/>
      <point x="25" y="211" type="line"/>
      <point x="133" y="211" type="line"/>
      <point x="156" y="389" type="line"/>
      <point x="46" y="389" type="line"/>
      <point x="53" y="434" type="line"/>
      <point x="162" y="434" type="line"/>
      <point x="182" y="592" type="line"/>
      <point x="225" y="592" type="line"/>
      <point x="205" y="434" type="line"/>
      <point x="311" y="433" type="line"/>
      <point x="331" y="592" type="line"/>
      <point x="374" y="592" type="line"/>
      <point x="354" y="433" type="line"/>
      <point x="455" y="433" type="line"/>
      <point x="448" y="388" type="line"/>
      <point x="348" y="388" type="line"/>
      <point x="326" y="210" type="line"/>
      <point x="427" y="210" type="line"/>
      <point x="419" y="165" type="line"/>
      <point x="320" y="165" type="line"/>
      <point x="298" y="-8" type="line"/>
    </contour>
    <contour>
      <point x="199" y="389" type="line"/>
      <point x="177" y="211" type="line"/>
      <point x="282" y="210" type="line"/>
      <point x="305" y="388" type="line"/>
    </contour>
  </outline>
</glyph>
<glyph name="percent" format="2">
  <advance width="687"/>
  <unicode hex="0025"/>
  <outline>
    <component base="o-percent" xOffset="1"/>
    <component base="o-percent" xOffset="340" yOffset="-358"/>
    <contour>
      <point x="96" y="0" type="line"/>
      <point x="522" y="700" type="line"/>
      <point x="581" y="700" type="line"/>
      <point x="155" y="0" type="line"/>
    </contour>
  </outline>
</glyph>
<glyph name="ampersand" format="2">
  <advance width="666"/>
  <unicode hex="0026"/>
  <outline>
    <contour>
      <point x="666" y="0" type="curve"/>
      <point x="474" y="0" type="line"/>
      <point x="466" y="8"/>
      <point x="441" y="30"/>
      <point x="409" y="62" type="curve"/>
      <point x="354" y="15"/>
      <point x="290" y="-16"/>
      <point x="218" y="-16" type="curve" smooth="yes"/>
      <point x="116" y="-16"/>
      <point x="23" y="48"/>
      <point x="23" y="166" type="curve" smooth="yes"/>
      <point x="23" y="264"/>
      <point x="88" y="333"/>
      <point x="170" y="383" type="curve"/>
      <point x="154" y="422"/>
      <point x="144" y="460"/>
      <point x="144" y="495" type="curve" smooth="yes"/>
      <point x="144" y="594"/>
      <point x="220" y="699"/>
      <point x="328" y="699" type="curve" smooth="yes"/>
      <point x="404" y="699"/>
      <point x="464" y="647"/>
      <point x="464" y="576" type="curve" smooth="yes"/>
      <point x="464" y="493"/>
      <point x="383" y="437"/>
      <point x="312" y="406" type="curve"/>
      <point x="355" y="341"/>
      <point x="411" y="271"/>
      <point x="468" y="207" type="curve"/>
      <point x="486" y="233"/>
      <point x="499" y="261"/>
      <point x="499" y="285" type="curve" smooth="yes"/>
      <point x="499" y="316"/>
      <point x="477" y="341"/>
      <point x="416" y="350" type="curve"/>
      <point x="416" y="395" type="line"/>
      <point x="608" y="395" type="line"/>
      <point x="608" y="349" type="line"/>
      <point x="584" y="293"/>
      <point x="549" y="227"/>
      <point x="505" y="166" type="curve"/>
      <point x="568" y="97"/>
      <point x="628" y="37"/>
    </contour>
    <contour>
      <point x="190" y="340" type="curve"/>
      <point x="156" y="312"/>
      <point x="144" y="273"/>
      <point x="144" y="234" type="curve" smooth="yes"/>
      <point x="144" y="157"/>
      <point x="191" y="73"/>
      <point x="280" y="73" type="curve" smooth="yes"/>
      <point x="311" y="73"/>
      <point x="343" y="83"/>
      <point x="370" y="102" type="curve"/>
      <point x="310" y="166"/>
      <point x="237" y="253"/>
    </contour>
    <contour>
      <point x="360" y="562" type="curve" smooth="yes"/>
      <point x="360" y="612"/>
      <point x="331" y="651"/>
      <point x="296" y="651" type="curve" smooth="yes"/>
      <point x="263" y="651"/>
      <point x="239" y="615"/>
      <point x="241" y="583" type="curve" smooth="yes"/>
      <point x="241" y="575" type="line" smooth="yes"/>
      <point x="243" y="538"/>
      <point x="261" y="493"/>
      <point x="289" y="444" type="curve"/>
      <point x="330" y="471"/>
      <point x="360" y="510"/>
    </contour>
  </outline>
</glyph>
<glyph name="asterisk" format="2">
  <advance width="433"/>
  <unicode hex="002A"/>
  <outline>
    <contour>
      <point x="206" y="532" type="line"/>
      <point x="226" y="532" type="line"/>
      <point x="282" y="706" type="line"/>
      <point x="150" y="706" type="line"/>
    </contour>
    <contour>
      <point x="213.351" y="541.356" type="line"/>
      <point x="219.532" y="522.335" type="line"/>
      <point x="402.321" y="522.857" type="line"/>
      <point x="361.522" y="648.394" type="line"/>
    </contour>
    <contour>
      <point x="225.002" y="538.128" type="line"/>
      <point x="208.828" y="526.363" type="line"/>
      <point x="265.895" y="352.71" type="line"/>
      <point x="372.642" y="430.358" type="line"/>
    </contour>
    <contour>
      <point x="213.735" y="522.448" type="line"/>
      <point x="219.909" y="541.471" type="line"/>
      <point x="71.6945" y="648.45" type="line"/>
      <point x="30.9457" y="522.897" type="line"/>
    </contour>
    <contour>
      <point x="225.176" y="525.909" type="line"/>
      <point x="208.993" y="537.66" type="line"/>
      <point x="61.4417" y="429.769" type="line"/>
      <point x="168.252" y="352.209" type="line"/>
    </contour>
    <contour>
      <point x="225.176" y="525.909" type="line"/>
      <point x="208.993" y="537.66" type="line"/>
      <point x="61.4417" y="429.769" type="line"/>
      <point x="168.252" y="352.209" type="line"/>
    </contour>
  </outline>
</glyph>
<glyph name="comma" format="2">
  <advance width="208"/>
  <unicode hex="002C"/>
  <outline>
    <contour>
      <point x="41" y="-106" type="line"/>
      <point x="139" y="-88"/>
      <point x="177" y="-19"/>
      <point x="177" y="42" type="curve" smooth="yes"/>
      <point x="177" y="106"/>
      <point x="135" y="135"/>
      <point x="95" y="135" type="curve" smooth="yes"/>
      <point x="59" y="135"/>
      <point x="24" y="111"/>
      <point x="24" y="69" type="curve" smooth="yes"/>
      <point x="24" y="30"/>
      <point x="53" y="0"/>
      <point x="96" y="-1" type="curve"/>
      <point x="94" y="-34"/>
      <point x="66" y="-60"/>
      <point x="25" y="-67" type="curve"/>
    </contour>
  </outline>
</glyph>
<glyph name="hyphen" format="2">
  <advance width="245"/>
  <unicode hex="002D"/>
  <outline>
    <contour>
      <point x="9" y="373" type="line"/>
      <point x="18" y="337" type="line"/>
      <point x="229" y="337" type="line"/>
      <point x="202" y="443" type="line"/>
    </contour>
  </outline>
</glyph>
<glyph name="period" format="2">
  <advance width="209"/>
  <unicode hex="002E"/>
  <outline>
    <contour>
      <point x="104" y="-9" type="curve" smooth="yes"/>
      <point x="153" y="-9"/>
      <point x="178" y="27"/>
      <point x="178" y="64" type="curve" smooth="yes"/>
      <point x="178" y="100"/>
      <point x="153" y="136"/>
      <point x="104" y="136" type="curve" smooth="yes"/>
      <point x="55" y="136"/>
      <point x="31" y="100"/>
      <point x="31" y="64" type="curve" smooth="yes"/>
      <point x="31" y="27"/>
      <point x="55" y="-9"/>
    </contour>
  </outline>
</glyph>
<glyph name="slash" format="2">
  <advance width="388"/>
  <unicode hex="002F"/>
  <outline>
    <contour>
      <point x="25" y="0" type="line"/>
      <point x="301" y="700" type="line"/>
      <point x="374" y="700" type="line"/>
      <point x="98" y="0" type="line"/>
    </contour>
  </outline>
</glyph>
<glyph name="zero" format="2">
  <advance width="477"/>
  <unicode hex="0030"/>
  <outline>
    <contour>
      <point x="27" y="355" type="curve" smooth="yes"/>
      <point x="27" y="203"/>
      <point x="72" y="-12"/>
      <point x="238" y="-12" type="curve" smooth="yes"/>
      <point x="404" y="-12"/>
      <point x="450" y="204"/>
      <point x="450" y="355" type="curve" smooth="yes"/>
      <point x="450" y="507"/>
      <point x="404" y="711"/>
      <point x="238" y="711" type="curve" smooth="yes"/>
      <point x="72" y="711"/>
      <point x="27" y="507"/>
    </contour>
    <contour>
      <point x="238" y="670" type="curve" smooth="yes"/>
      <point x="299" y="670"/>
      <point x="300" y="475"/>
      <point x="300" y="355" type="curve" smooth="yes"/>
      <point x="300" y="235"/>
      <point x="299" y="31"/>
      <point x="238" y="31" type="curve" smooth="yes"/>
      <point x="177" y="31"/>
      <point x="177" y="235"/>
      <point x="177" y="355" type="curve" smooth="yes"/>
      <point x="177" y="475"/>
      <point x="177" y="670"/>
    </contour>
  </outline>
</glyph>
<glyph name="one" format="2">
  <advance width="285"/>
  <unicode hex="0031"/>
  <outline>
    <contour>
      <point x="218" y="710" type="line"/>
      <point x="193" y="710" type="line"/>
      <point x="152" y="648"/>
      <point x="99" y="608"/>
      <point x="21" y="583" type="curve"/>
      <point x="21" y="545" type="line"/>
      <point x="76" y="545" type="line"/>
      <point x="76" y="45" type="line"/>
      <point x="31" y="45" type="line"/>
      <point x="31" y="0" type="line"/>
      <point x="263" y="0" type="line"/>
      <point x="263" y="45" type="line"/>
      <point x="218" y="45" type="line"/>
    </contour>
  </outline>
</glyph>
<glyph name="two" format="2">
  <advance width="431"/>
  <unicode hex="0032"/>
  <outline>
    <contour>
      <point x="83" y="82" type="curve"/>
      <point x="14" y="51" type="line"/>
      <point x="184" y="335"/>
      <point x="231" y="427"/>
      <point x="259" y="532" type="curve" smooth="yes"/>
      <point x="263.364" y="548.581"/>
      <point x="265.865" y="566.602"/>
      <point x="265.862" y="583.82" type="curve" smooth="yes"/>
      <point x="265.853" y="625.791"/>
      <point x="250.956" y="663"/>
      <point x="211.849" y="663" type="curve" smooth="yes"/>
      <point x="144" y="663"/>
      <point x="117" y="551"/>
      <point x="113" y="455" type="curve"/>
      <point x="68" y="446" type="line"/>
      <point x="52" y="683" type="line"/>
      <point x="95.9424" y="705.729"/>
      <point x="159.047" y="713"/>
      <point x="209.253" y="713" type="curve" smooth="yes"/>
      <point x="306" y="713"/>
      <point x="407" y="686"/>
      <point x="407" y="567" type="curve" smooth="yes"/>
      <point x="407" y="469.311"/>
      <point x="365.52" y="396.025"/>
      <point x="229.693" y="253.737" type="curve" smooth="yes"/>
      <point x="177.651" y="199.219"/>
      <point x="125.959" y="144.161"/>
    </contour>
    <contour>
      <point x="14" y="51" type="line"/>
      <point x="117" y="125" type="line"/>
      <point x="353" y="125" type="line"/>
      <point x="358" y="175" type="line"/>
      <point x="403" y="175" type="line"/>
      <point x="403" y="0" type="line"/>
      <point x="14" y="0" type="line"/>
    </contour>
  </outline>
</glyph>
<glyph name="three" format="2">
  <advance width="427"/>
  <unicode hex="0033"/>
  <outline>
    <contour>
      <point x="31" y="235" type="line"/>
      <point x="46" y="27" type="line"/>
      <point x="91" y="5"/>
      <point x="130" y="-12"/>
      <point x="187" y="-12" type="curve" smooth="yes"/>
      <point x="328" y="-12"/>
      <point x="398" y="96"/>
      <point x="398" y="217" type="curve" smooth="yes"/>
      <point x="398" y="330"/>
      <point x="338" y="419"/>
      <point x="232" y="456" type="curve"/>
      <point x="398" y="647" type="line"/>
      <point x="398" y="700" type="line"/>
      <point x="74" y="700" type="line"/>
      <point x="37" y="546" type="line"/>
      <point x="80" y="537" type="line"/>
      <point x="97" y="575" type="line"/>
      <point x="267" y="575" type="line"/>
      <point x="100" y="383" type="line"/>
      <point x="113" y="344" type="line"/>
      <point x="207" y="344"/>
      <point x="285" y="237"/>
      <point x="285" y="147" type="curve" smooth="yes"/>
      <point x="285" y="99"/>
      <point x="262" y="44"/>
      <point x="211" y="44" type="curve" smooth="yes"/>
      <point x="138" y="44"/>
      <point x="100" y="158"/>
      <point x="79" y="241" type="curve"/>
    </contour>
  </outline>
</glyph>
<glyph name="four" format="2">
  <advance width="427"/>
  <unicode hex="0034"/>
  <outline>
    <contour>
      <point x="359" y="358" type="line"/>
      <point x="359" y="195" type="line"/>
      <point x="424" y="195" type="line"/>
      <point x="424" y="150" type="line"/>
      <point x="359" y="150" type="line"/>
      <point x="359" y="45" type="line"/>
      <point x="404" y="45" type="line"/>
      <point x="404" y="0" type="line"/>
      <point x="172" y="0" type="line"/>
      <point x="172" y="45" type="line"/>
      <point x="217" y="45" type="line"/>
      <point x="217" y="150" type="line"/>
      <point x="3" y="150" type="line"/>
      <point x="3" y="195" type="line"/>
      <point x="217" y="195" type="line"/>
      <point x="217" y="265" type="line"/>
      <point x="259" y="280"/>
      <point x="321" y="310"/>
      <point x="339" y="359" type="curve"/>
    </contour>
    <contour>
      <point x="54" y="195" type="line"/>
      <point x="3" y="195" type="line"/>
      <point x="142" y="384"/>
      <point x="211" y="514"/>
      <point x="211" y="720" type="curve"/>
      <point x="368" y="680" type="line"/>
      <point x="368" y="517"/>
      <point x="264" y="412"/>
      <point x="155" y="302" type="curve"/>
    </contour>
  </outline>
</glyph>
<glyph name="five" format="2">
  <advance width="421"/>
  <unicode hex="0035"/>
  <outline>
    <contour>
      <point x="54" y="360" type="line"/>
      <point x="221" y="360"/>
      <point x="288" y="243"/>
      <point x="288" y="152" type="curve" smooth="yes"/>
      <point x="288" y="95"/>
      <point x="262" y="48"/>
      <point x="216" y="48" type="curve" smooth="yes"/>
      <point x="150" y="48"/>
      <point x="97" y="146"/>
      <point x="80" y="234" type="curve"/>
      <point x="32" y="222" type="line"/>
      <point x="47" y="27" type="line"/>
      <point x="92" y="5"/>
      <point x="131" y="-12"/>
      <point x="183" y="-12" type="curve" smooth="yes"/>
      <point x="310" y="-12"/>
      <point x="403" y="90"/>
      <point x="403" y="221" type="curve"/>
      <point x="401" y="257" type="line"/>
      <point x="383" y="393"/>
      <point x="277" y="472"/>
      <point x="119" y="472" type="curve"/>
      <point x="130" y="575" type="line"/>
      <point x="362" y="575" type="line"/>
      <point x="403" y="732" type="line"/>
      <point x="360" y="741" type="line"/>
      <point x="345" y="700" type="line"/>
      <point x="85" y="700" type="line"/>
    </contour>
  </outline>
</glyph>
<glyph name="six" format="2">
  <advance width="442"/>
  <unicode hex="0036"/>
  <outline>
    <contour>
      <point x="221" y="-9" type="curve" smooth="yes"/>
      <point x="375" y="-9"/>
      <point x="420" y="131"/>
      <point x="420" y="229" type="curve" smooth="yes"/>
      <point x="420" y="324"/>
      <point x="377" y="459"/>
      <point x="248" y="459" type="curve" smooth="yes"/>
      <point x="229" y="459"/>
      <point x="218" y="456"/>
      <point x="210" y="453" type="curve"/>
      <point x="237" y="544"/>
      <point x="293" y="626"/>
      <point x="383" y="711" type="curve"/>
      <point x="366" y="728" type="line"/>
      <point x="117" y="623"/>
      <point x="25" y="431"/>
      <point x="25" y="251" type="curve" smooth="yes"/>
      <point x="25" y="134"/>
      <point x="64" y="-9"/>
    </contour>
    <contour>
      <point x="222" y="414" type="curve" smooth="yes"/>
      <point x="262" y="414"/>
      <point x="283" y="296"/>
      <point x="283" y="228" type="curve" smooth="yes"/>
      <point x="283" y="159"/>
      <point x="262" y="36"/>
      <point x="222" y="36" type="curve" smooth="yes"/>
      <point x="181" y="36"/>
      <point x="162" y="159"/>
      <point x="162" y="228" type="curve" smooth="yes"/>
      <point x="162" y="296"/>
      <point x="181" y="414"/>
    </contour>
  </outline>
</glyph>
<glyph name="seven" format="2">
  <advance width="354"/>
  <unicode hex="0037"/>
  <outline>
    <contour>
      <point x="279" y="618" type="curve"/>
      <point x="358" y="649" type="line"/>
      <point x="235.93" y="438.768"/>
      <point x="228.035" y="268.849"/>
      <point x="228.2" y="128.547" type="curve" smooth="yes"/>
      <point x="228.351" y="0" type="line"/>
      <point x="72" y="0" type="line"/>
      <point x="72" y="214"/>
      <point x="114" y="425"/>
    </contour>
    <contour>
      <point x="55" y="575" type="line"/>
      <point x="37" y="535" type="line"/>
      <point x="-6" y="544" type="line"/>
      <point x="29" y="700" type="line"/>
      <point x="358" y="700" type="line"/>
      <point x="358" y="649" type="line"/>
      <point x="243" y="575" type="line"/>
    </contour>
  </outline>
</glyph>
<glyph name="eight" format="2">
  <advance width="431"/>
  <unicode hex="0038"/>
  <outline>
    <contour>
      <point x="400" y="558" type="curve" smooth="yes"/>
      <point x="400" y="654"/>
      <point x="317" y="712"/>
      <point x="227" y="712" type="curve" smooth="yes"/>
      <point x="133" y="712"/>
      <point x="39" y="649"/>
      <point x="39" y="518" type="curve" smooth="yes"/>
      <point x="39" y="435"/>
      <point x="77" y="378"/>
      <point x="124" y="334" type="curve"/>
      <point x="60" y="301"/>
      <point x="13" y="244"/>
      <point x="13" y="161" type="curve" smooth="yes"/>
      <point x="13" y="38"/>
      <point x="116" y="-12"/>
      <point x="217" y="-12" type="curve" smooth="yes"/>
      <point x="355" y="-12"/>
      <point x="418" y="80"/>
      <point x="418" y="188" type="curve" smooth="yes"/>
      <point x="418" y="289"/>
      <point x="363" y="351"/>
      <point x="300" y="398" type="curve"/>
      <point x="358" y="434"/>
      <point x="400" y="488"/>
    </contour>
    <contour>
      <point x="217" y="263" type="curve" smooth="yes"/>
      <point x="279" y="221"/>
      <point x="320" y="182"/>
      <point x="320" y="132" type="curve" smooth="yes"/>
      <point x="320" y="83"/>
      <point x="279" y="42"/>
      <point x="228" y="42" type="curve" smooth="yes"/>
      <point x="167" y="42"/>
      <point x="133" y="100"/>
      <point x="133" y="163" type="curve" smooth="yes"/>
      <point x="133" y="196"/>
      <point x="142" y="246"/>
      <point x="179" y="289" type="curve"/>
      <point x="192" y="280"/>
      <point x="205" y="271"/>
    </contour>
    <contour>
      <point x="235" y="442" type="curve" smooth="yes"/>
      <point x="233" y="443"/>
      <point x="232" y="444"/>
      <point x="230" y="445" type="curve" smooth="yes"/>
      <point x="166" y="486"/>
      <point x="133" y="521"/>
      <point x="133" y="570" type="curve" smooth="yes"/>
      <point x="133" y="618"/>
      <point x="167" y="661"/>
      <point x="210" y="661" type="curve" smooth="yes"/>
      <point x="244" y="661"/>
      <point x="285" y="632"/>
      <point x="285" y="566" type="curve" smooth="yes"/>
      <point x="285" y="520"/>
      <point x="265" y="477"/>
      <point x="239" y="440" type="curve"/>
      <point x="237" y="441"/>
      <point x="236" y="442"/>
    </contour>
  </outline>
</glyph>
<glyph name="nine" format="2">
  <advance width="428"/>
  <unicode hex="0039"/>
  <outline>
    <contour>
      <point x="214" y="708" type="curve" smooth="yes"/>
      <point x="58" y="708"/>
      <point x="23" y="571"/>
      <point x="23" y="484" type="curve" smooth="yes"/>
      <point x="23" y="382"/>
      <point x="72" y="258"/>
      <point x="199" y="258" type="curve" smooth="yes"/>
      <point x="214" y="258"/>
      <point x="226" y="260"/>
      <point x="233" y="261" type="curve" smooth="yes"/>
      <point x="234" y="262"/>
      <point x="235" y="262"/>
      <point x="236" y="262" type="curve"/>
      <point x="238" y="263"/>
      <point x="239" y="263"/>
      <point x="239" y="263" type="curve"/>
      <point x="221" y="173"/>
      <point x="170" y="87"/>
      <point x="70" y="4" type="curve"/>
      <point x="79" y="-10" type="line"/>
      <point x="350" y="92"/>
      <point x="403" y="270"/>
      <point x="403" y="436" type="curve" smooth="yes"/>
      <point x="403" y="568"/>
      <point x="370" y="708"/>
    </contour>
    <contour>
      <point x="218" y="306" type="curve" smooth="yes"/>
      <point x="178" y="306"/>
      <point x="160" y="416"/>
      <point x="160" y="482" type="curve" smooth="yes"/>
      <point x="160" y="549"/>
      <point x="178" y="664"/>
      <point x="218" y="664" type="curve" smooth="yes"/>
      <point x="257" y="664"/>
      <point x="274" y="549"/>
      <point x="274" y="482" type="curve" smooth="yes"/>
      <point x="274" y="416"/>
      <point x="257" y="306"/>
    </contour>
  </outline>
</glyph>
<glyph name="colon" format="2">
  <advance width="218"/>
  <unicode hex="003A"/>
  <outline>
    <contour>
      <point x="109" y="111" type="curve" smooth="yes"/>
      <point x="158" y="111"/>
      <point x="183" y="147"/>
      <point x="183" y="184" type="curve" smooth="yes"/>
      <point x="183" y="220"/>
      <point x="158" y="256"/>
      <point x="109" y="256" type="curve" smooth="yes"/>
      <point x="60" y="256"/>
      <point x="36" y="220"/>
      <point x="36" y="184" type="curve" smooth="yes"/>
      <point x="36" y="147"/>
      <point x="60" y="111"/>
    </contour>
    <contour>
      <point x="109" y="420" type="curve" smooth="yes"/>
      <point x="158" y="420"/>
      <point x="183" y="456"/>
      <point x="183" y="493" type="curve" smooth="yes"/>
      <point x="183" y="529"/>
      <point x="158" y="565"/>
      <point x="109" y="565" type="curve" smooth="yes"/>
      <point x="60" y="565"/>
      <point x="36" y="529"/>
      <point x="36" y="493" type="curve" smooth="yes"/>
      <point x="36" y="456"/>
      <point x="60" y="420"/>
    </contour>
  </outline>
</glyph>
<glyph name="greater" format="2">
  <advance width="356"/>
  <unicode hex="003E"/>
  <outline>
    <contour>
      <point x="346" y="350" type="line"/>
      <point x="74" y="186" type="line"/>
      <point x="50" y="226" type="line"/>
      <point x="258" y="350" type="line"/>
      <point x="50" y="474" type="line"/>
      <point x="74" y="514" type="line"/>
    </contour>
  </outline>
</glyph>
<glyph name="question" format="2">
  <advance width="434"/>
  <unicode hex="003F"/>
  <outline>
    <component base="period" xOffset="29"/>
    <contour>
      <point x="107" y="388" type="line"/>
      <point x="225" y="388"/>
      <point x="295" y="490"/>
      <point x="295" y="568.566" type="curve" smooth="yes"/>
      <point x="295" y="620"/>
      <point x="265" y="652"/>
      <point x="225.405" y="652" type="curve" smooth="yes"/>
      <point x="151" y="652"/>
      <point x="100" y="539"/>
      <point x="91" y="490.5" type="curve"/>
      <point x="44" y="490.5" type="line"/>
      <point x="29" y="674" type="line"/>
      <point x="64" y="694"/>
      <point x="124" y="708"/>
      <point x="181.501" y="708" type="curve" smooth="yes"/>
      <point x="308.781" y="708"/>
      <point x="408.109" y="639.403"/>
      <point x="408.109" y="510.505" type="curve" smooth="yes"/>
      <point x="408.109" y="401.308"/>
      <point x="336.824" y="290.207"/>
      <point x="156" y="267" type="curve"/>
      <point x="156" y="188" type="line"/>
      <point x="107" y="188" type="line"/>
    </contour>
  </outline>
</glyph>
<glyph name="A" format="2">
  <advance width="484"/>
  <unicode hex="0041"/>
  <outline>
    <contour>
      <point x="235" y="700" type="line"/>
      <point x="185" y="700" type="line"/>
      <point x="25" y="45" type="line"/>
      <point x="77" y="45" type="line"/>
    </contour>
    <contour>
      <point x="155" y="700" type="line"/>
      <point x="272" y="205" type="line"/>
      <point x="111" y="205" type="line"/>
      <point x="101" y="160" type="line"/>
      <point x="283" y="160" type="line"/>
      <point x="310" y="45" type="line"/>
      <point x="259" y="45" type="line"/>
      <point x="259" y="0" type="line"/>
      <point x="490" y="0" type="line"/>
      <point x="490" y="45" type="line"/>
      <point x="455" y="45" type="line"/>
      <point x="300" y="700" type="line"/>
    </contour>
    <contour>
      <point x="123" y="45" type="line"/>
      <point x="-10" y="45" type="line"/>
      <point x="-10" y="0" type="line"/>
      <point x="123" y="0" type="line"/>
    </contour>
  </outline>
</glyph>
<glyph name="B" format="2">
  <advance width="507"/>
  <unicode hex="0042"/>
  <outline>
    <contour>
      <point x="66" y="44" type="line" name=".sk1"/>
      <point x="22" y="44" type="line"/>
      <point x="22" y="0" type="line"/>
      <point x="208" y="0" type="line" name=".sk2"/>
      <point x="208" y="0" type="line"/>
      <point x="398" y="2"/>
      <point x="496" y="71"/>
      <point x="496" y="213" type="curve" smooth="yes"/>
      <point x="496" y="334"/>
      <point x="425" y="399"/>
      <point x="322" y="420" type="curve"/>
      <point x="322" y="426" type="line"/>
      <point x="393" y="444"/>
      <point x="440" y="486"/>
      <point x="440" y="559" type="curve" smooth="yes"/>
      <point x="440" y="653"/>
      <point x="361" y="698"/>
      <point x="208" y="700" type="curve" name=".sk3"/>
      <point x="208" y="700" type="line"/>
      <point x="86" y="700" type="line" name=".sk4"/>
      <point x="22" y="700" type="line"/>
      <point x="22" y="656" type="line"/>
      <point x="66" y="656" type="line"/>
    </contour>
    <contour>
      <point x="347" y="224" type="curve" smooth="yes"/>
      <point x="347" y="140"/>
      <point x="322" y="41"/>
      <point x="208" y="44" type="curve"/>
      <point x="208" y="394" type="line"/>
      <point x="326" y="397"/>
      <point x="347" y="300"/>
    </contour>
    <contour>
      <point x="307" y="551" type="curve" smooth="yes"/>
      <point x="307" y="501"/>
      <point x="292" y="439"/>
      <point x="208" y="440" type="curve"/>
      <point x="208" y="656" type="line"/>
      <point x="289" y="657"/>
      <point x="307" y="606"/>
    </contour>
  </outline>
  <guideline angle="90" x="22" y="0"/>
</glyph>
<glyph name="C" format="2">
  <advance width="422"/>
  <unicode hex="0043"/>
  <outline>
    <contour>
      <point x="30" y="354" type="curve" smooth="yes"/>
      <point x="30" y="513"/>
      <point x="60" y="712"/>
      <point x="263" y="712" type="curve" smooth="yes"/>
      <point x="359" y="712"/>
      <point x="395" y="668"/>
      <point x="399" y="663" type="curve"/>
      <point x="388" y="483" type="line"/>
      <point x="347" y="483" type="line"/>
      <point x="312" y="593"/>
      <point x="274" y="661"/>
      <point x="245" y="661" type="curve" smooth="yes"/>
      <point x="198" y="661"/>
      <point x="185" y="482"/>
      <point x="185" y="356" type="curve" smooth="yes"/>
      <point x="185" y="230"/>
      <point x="198" y="43"/>
      <point x="248" y="43" type="curve" smooth="yes"/>
      <point x="292" y="43"/>
      <point x="347" y="190"/>
      <point x="358" y="224" type="curve"/>
      <point x="399" y="224" type="line"/>
      <point x="399" y="31" type="line"/>
      <point x="367" y="-1"/>
      <point x="311" y="-12"/>
      <point x="265" y="-12" type="curve" smooth="yes"/>
      <point x="58" y="-12"/>
      <point x="30" y="201"/>
    </contour>
  </outline>
</glyph>
<glyph name="D" format="2">
  <advance width="515"/>
  <unicode hex="0044"/>
  <outline>
    <contour>
      <point x="66" y="44" type="line" name=".sk1"/>
      <point x="22" y="44" type="line"/>
      <point x="22" y="0" type="line"/>
      <point x="208" y="0" type="line" smooth="yes" name=".sk2"/>
      <point x="434" y="0"/>
      <point x="492" y="161"/>
      <point x="492" y="358" type="curve" smooth="yes"/>
      <point x="492" y="555"/>
      <point x="434" y="700"/>
      <point x="208" y="700" type="curve" name=".sk3"/>
      <point x="208" y="700" type="line"/>
      <point x="86" y="700" type="line" name=".sk4"/>
      <point x="22" y="700" type="line"/>
      <point x="22" y="656" type="line"/>
      <point x="66" y="656" type="line"/>
    </contour>
    <contour>
      <point x="343" y="356" type="curve" smooth="yes"/>
      <point x="344" y="224"/>
      <point x="336" y="57"/>
      <point x="208" y="52" type="curve"/>
      <point x="208" y="655" type="line"/>
      <point x="317" y="654"/>
      <point x="341" y="557"/>
    </contour>
  </outline>
</glyph>
<glyph name="E" format="2">
  <advance width="489"/>
  <unicode hex="0045"/>
  <outline>
    <contour>
      <point x="209" y="50" type="curve"/>
      <point x="209" y="644" type="line"/>
      <point x="246" y="646"/>
      <point x="390" y="610"/>
      <point x="431" y="500" type="curve"/>
      <point x="466" y="512" type="line"/>
      <point x="405" y="700" type="line"/>
      <point x="23" y="700" type="line"/>
      <point x="23" y="655" type="line"/>
      <point x="68" y="655" type="line"/>
      <point x="68" y="45" type="line"/>
      <point x="23" y="45" type="line"/>
      <point x="23" y="0" type="line"/>
      <point x="447" y="0" type="line"/>
      <point x="500" y="278" type="line"/>
      <point x="457" y="287" type="line"/>
      <point x="431" y="178"/>
      <point x="362" y="50"/>
    </contour>
    <contour>
      <point x="209" y="373" type="line"/>
      <point x="270" y="361"/>
      <point x="309" y="327"/>
      <point x="336" y="266" type="curve"/>
      <point x="379" y="281" type="line"/>
      <point x="319" y="545" type="line"/>
      <point x="276" y="533" type="line"/>
      <point x="279.322" y="476.532"/>
      <point x="238.51" y="431.097"/>
      <point x="197" y="411.627" type="curve"/>
    </contour>
  </outline>
</glyph>
<glyph name="F" format="2">
  <advance width="448"/>
  <unicode hex="0046"/>
  <outline>
    <contour>
      <point x="426" y="697" type="line"/>
      <point x="31" y="697" type="line"/>
      <point x="23" y="655" type="line"/>
      <point x="68" y="655" type="line"/>
      <point x="68" y="45" type="line"/>
      <point x="23" y="45" type="line"/>
      <point x="23" y="0" type="line"/>
      <point x="255" y="0" type="line"/>
      <point x="255" y="45" type="line"/>
      <point x="209" y="45" type="line"/>
      <point x="209" y="356" type="line"/>
      <point x="270" y="344"/>
      <point x="309" y="310"/>
      <point x="336" y="249" type="curve"/>
      <point x="379" y="264" type="line"/>
      <point x="319" y="528" type="line"/>
      <point x="276" y="516" type="line"/>
      <point x="279" y="465"/>
      <point x="246" y="423"/>
      <point x="209" y="401" type="curve"/>
      <point x="209" y="644" type="line"/>
      <point x="212" y="644"/>
      <point x="366" y="644"/>
      <point x="427" y="479" type="curve"/>
      <point x="462" y="491" type="line"/>
    </contour>
  </outline>
</glyph>
<glyph name="G" format="2">
  <advance width="505"/>
  <unicode hex="0047"/>
  <outline>
    <contour>
      <point x="411" y="669" type="line"/>
      <point x="386" y="689"/>
      <point x="329" y="712"/>
      <point x="260" y="712" type="curve" smooth="yes"/>
      <point x="55" y="712"/>
      <point x="30" y="507"/>
      <point x="30" y="355" type="curve" smooth="yes"/>
      <point x="30" y="203"/>
      <point x="55" y="-12"/>
      <point x="249" y="-12" type="curve" smooth="yes"/>
      <point x="310" y="-12"/>
      <point x="350" y="10"/>
      <point x="393" y="55" type="curve"/>
      <point x="416" y="18"/>
      <point x="450" y="-3"/>
      <point x="454" y="-5" type="curve"/>
      <point x="465" y="0" type="line"/>
      <point x="465" y="391" type="line"/>
      <point x="279" y="391" type="line"/>
      <point x="279" y="346" type="line"/>
      <point x="324" y="346" type="line"/>
      <point x="324" y="70" type="line"/>
      <point x="314" y="56"/>
      <point x="286" y="40"/>
      <point x="259" y="40" type="curve" smooth="yes"/>
      <point x="190" y="40"/>
      <point x="180" y="145"/>
      <point x="180" y="344" type="curve" smooth="yes"/>
      <point x="180" y="544"/>
      <point x="180" y="660"/>
      <point x="243" y="660" type="curve" smooth="yes"/>
      <point x="304" y="660"/>
      <point x="348" y="552"/>
      <point x="367" y="505" type="curve"/>
      <point x="411" y="505" type="line"/>
    </contour>
  </outline>
</glyph>
<glyph name="H" format="2">
  <advance width="553"/>
  <unicode hex="0048"/>
  <outline>
    <contour>
      <point x="191" y="353" type="line"/>
      <point x="356" y="353" type="line"/>
      <point x="356" y="398" type="line"/>
      <point x="191" y="398" type="line"/>
    </contour>
    <contour>
      <point x="345.178" y="44" type="line" name=".sk1"/>
      <point x="301.178" y="44" type="line"/>
      <point x="301.178" y="0" type="line"/>
      <point x="365.661" y="0" type="line"/>
      <point x="466.517" y="0" type="line" name=".sk2"/>
      <point x="531" y="0" type="line"/>
      <point x="531" y="44" type="line"/>
      <point x="487" y="44" type="line"/>
      <point x="487" y="656" type="line" name=".sk3"/>
      <point x="531" y="656" type="line"/>
      <point x="531" y="700" type="line"/>
      <point x="466.517" y="700" type="line"/>
      <point x="365.483" y="700" type="line" name=".sk4"/>
      <point x="301" y="700" type="line"/>
      <point x="301" y="656" type="line"/>
      <point x="345" y="656" type="line"/>
    </contour>
    <contour>
      <point x="66.9896" y="44" type="line" name=".sk1"/>
      <point x="22.9896" y="44" type="line"/>
      <point x="22.9896" y="0" type="line"/>
      <point x="87.4729" y="0" type="line"/>
      <point x="188.328" y="0" type="line" name=".sk2"/>
      <point x="252.811" y="0" type="line"/>
      <point x="252.811" y="44" type="line"/>
      <point x="208.811" y="44" type="line"/>
      <point x="208.811" y="656" type="line" name=".sk3"/>
      <point x="252.811" y="656" type="line"/>
      <point x="252.811" y="700" type="line"/>
      <point x="188.328" y="700" type="line"/>
      <point x="87.2947" y="700" type="line" name=".sk4"/>
      <point x="22.8115" y="700" type="line"/>
      <point x="22.8115" y="656" type="line"/>
      <point x="66.8115" y="656" type="line"/>
    </contour>
  </outline>
</glyph>
<glyph name="I" format="2">
  <advance width="274"/>
  <unicode hex="0049"/>
  <outline>
    <contour>
      <point x="66" y="44" type="line" name=".sk1"/>
      <point x="22" y="44" type="line"/>
      <point x="22" y="0" type="line"/>
      <point x="252" y="0" type="line"/>
      <point x="252" y="44" type="line"/>
      <point x="208" y="44" type="line"/>
      <point x="208" y="656" type="line" name=".sk3"/>
      <point x="252" y="656" type="line"/>
      <point x="252" y="700" type="line"/>
      <point x="22" y="700" type="line"/>
      <point x="22" y="656" type="line"/>
      <point x="66" y="656" type="line"/>
    </contour>
  </outline>
</glyph>
<glyph name="J" format="2">
  <advance width="269"/>
  <unicode hex="004A"/>
  <outline>
    <contour>
      <point x="64" y="132" type="line" smooth="yes"/>
      <point x="64" y="-10"/>
      <point x="42" y="-81"/>
      <point x="-23" y="-114" type="curve"/>
      <point x="-12" y="-136" type="line"/>
      <point x="163" y="-96"/>
      <point x="207" y="18"/>
      <point x="207" y="220" type="curve" smooth="yes"/>
      <point x="207" y="655" type="line" name=".sk1"/>
      <point x="251" y="655" type="line"/>
      <point x="251" y="699" type="line"/>
      <point x="84" y="699" type="line" name=".sk2"/>
      <point x="20" y="699" type="line"/>
      <point x="20" y="655" type="line"/>
      <point x="64" y="655" type="line"/>
    </contour>
  </outline>
</glyph>
<glyph name="M" format="2">
  <advance width="676"/>
  <unicode hex="004D"/>
  <outline>
    <contour>
      <point x="13" y="-1" type="line"/>
      <point x="154" y="-1" type="line"/>
      <point x="154" y="46" type="line"/>
      <point x="105" y="46" type="line"/>
      <point x="136" y="555" type="line"/>
      <point x="269" y="0" type="line"/>
      <point x="298" y="0" type="line"/>
      <point x="442" y="561" type="line"/>
      <point x="475" y="46" type="line"/>
      <point x="430" y="46" type="line"/>
      <point x="430" y="1" type="line"/>
      <point x="661" y="1" type="line"/>
      <point x="661" y="46" type="line"/>
      <point x="616" y="46" type="line"/>
      <point x="577" y="655" type="line"/>
      <point x="619" y="655" type="line"/>
      <point x="619" y="700" type="line"/>
      <point x="433" y="700" type="line"/>
      <point x="328" y="291" type="line"/>
      <point x="229" y="700" type="line"/>
      <point x="51" y="700" type="line"/>
      <point x="51" y="655" type="line"/>
      <point x="93" y="655" type="line"/>
      <point x="57" y="44" type="line"/>
      <point x="13" y="44" type="line"/>
    </contour>
  </outline>
</glyph>
<glyph name="N" format="2">
  <advance width="477"/>
  <unicode hex="004E"/>
  <outline>
    <contour>
      <point x="380" y="-1" type="line"/>
      <point x="428" y="-1" type="line"/>
      <point x="428" y="655" type="line"/>
      <point x="473" y="655" type="line"/>
      <point x="473" y="700" type="line"/>
      <point x="332" y="700" type="line"/>
      <point x="332" y="655" type="line"/>
      <point x="380" y="655" type="line"/>
      <point x="380" y="301" type="line"/>
      <point x="162" y="700" type="line"/>
      <point x="-6" y="700" type="line"/>
      <point x="59" y="583" type="line"/>
      <point x="59" y="45" type="line"/>
      <point x="12" y="45" type="line"/>
      <point x="12" y="0" type="line"/>
      <point x="157" y="0" type="line"/>
      <point x="157" y="45" type="line"/>
      <point x="110" y="45" type="line"/>
      <point x="110" y="492" type="line"/>
      <point x="380" y="7" type="line"/>
    </contour>
  </outline>
</glyph>
<glyph name="O" format="2">
  <advance width="502"/>
  <unicode hex="004F"/>
  <outline>
    <contour>
      <point x="251" y="670" type="curve" smooth="yes"/>
      <point x="323" y="670"/>
      <point x="325" y="554"/>
      <point x="325" y="354" type="curve" smooth="yes"/>
      <point x="325" y="154"/>
      <point x="323" y="30"/>
      <point x="251" y="30" type="curve" smooth="yes"/>
      <point x="180" y="30"/>
      <point x="179" y="154"/>
      <point x="179" y="354" type="curve" smooth="yes"/>
      <point x="179" y="554"/>
      <point x="180" y="670"/>
    </contour>
    <contour>
      <point x="30" y="354" type="curve" smooth="yes"/>
      <point x="30" y="202"/>
      <point x="55" y="-12"/>
      <point x="251" y="-12" type="curve" smooth="yes"/>
      <point x="447" y="-12"/>
      <point x="474" y="203"/>
      <point x="474" y="354" type="curve" smooth="yes"/>
      <point x="474" y="506"/>
      <point x="447" y="712"/>
      <point x="251" y="712" type="curve" smooth="yes"/>
      <point x="55" y="712"/>
      <point x="30" y="506"/>
    </contour>
  </outline>
</glyph>
<glyph name="P" format="2">
  <advance width="487"/>
  <unicode hex="0050"/>
  <outline>
    <contour>
      <point x="66" y="44" type="line" name=".sk1"/>
      <point x="22" y="44" type="line"/>
      <point x="22" y="0" type="line"/>
      <point x="252" y="0" type="line"/>
      <point x="252" y="44" type="line"/>
      <point x="208" y="44" type="line"/>
      <point x="208" y="241" type="line"/>
      <point x="363" y="233"/>
      <point x="486" y="297"/>
      <point x="486" y="472" type="curve" smooth="yes"/>
      <point x="486" y="624"/>
      <point x="392" y="698"/>
      <point x="208" y="700" type="curve" name=".sk3"/>
      <point x="208" y="700" type="line"/>
      <point x="22" y="700" type="line"/>
      <point x="22" y="656" type="line"/>
      <point x="66" y="656" type="line"/>
    </contour>
    <contour>
      <point x="337" y="466" type="curve" smooth="yes"/>
      <point x="337" y="389"/>
      <point x="318" y="284"/>
      <point x="208" y="285" type="curve"/>
      <point x="208" y="656" type="line"/>
      <point x="314" y="659"/>
      <point x="337" y="550"/>
    </contour>
  </outline>
</glyph>
<glyph name="Q" format="2">
  <advance width="502"/>
  <unicode hex="0051"/>
  <outline>
    <component base="O"/>
    <contour>
      <point x="177" y="13" type="line"/>
      <point x="177" y="-113"/>
      <point x="285" y="-167"/>
      <point x="412" y="-167" type="curve"/>
      <point x="420" y="-144" type="line"/>
      <point x="343" y="-113"/>
      <point x="316" y="-79"/>
      <point x="316" y="-28" type="curve" smooth="yes"/>
      <point x="316" y="-15"/>
      <point x="317" y="-2"/>
      <point x="320" y="13" type="curve"/>
    </contour>
  </outline>
</glyph>
<glyph name="R" format="2">
  <advance width="499"/>
  <unicode hex="0052"/>
  <outline>
    <contour>
      <point x="66" y="656" type="line"/>
      <point x="22" y="656" type="line"/>
      <point x="22" y="700" type="line"/>
      <point x="208" y="700" type="line" name=".sk3"/>
      <point x="208" y="700" type="line"/>
      <point x="348" y="698"/>
      <point x="457" y="625"/>
      <point x="457" y="486" type="curve" smooth="yes"/>
      <point x="457" y="416"/>
      <point x="421" y="365"/>
      <point x="371" y="332" type="curve"/>
      <point x="385" y="291"/>
      <point x="463" y="63"/>
      <point x="525" y="-68" type="curve"/>
      <point x="509" y="-77" type="line"/>
      <point x="371" y="7"/>
      <point x="299" y="81"/>
      <point x="238" y="285" type="curve"/>
      <point x="228" y="283"/>
      <point x="218" y="283"/>
      <point x="208" y="282" type="curve"/>
      <point x="208" y="44" type="line"/>
      <point x="252" y="44" type="line"/>
      <point x="252" y="0" type="line"/>
      <point x="22" y="0" type="line"/>
      <point x="22" y="44" type="line"/>
      <point x="66" y="44" type="line" name=".sk1"/>
    </contour>
    <contour>
      <point x="322" y="498" type="curve" smooth="yes"/>
      <point x="322" y="573"/>
      <point x="291" y="653"/>
      <point x="208" y="656" type="curve"/>
      <point x="208" y="330" type="line"/>
      <point x="294" y="346"/>
      <point x="322" y="427"/>
    </contour>
    <contour>
      <point x="247" y="660" type="move"/>
      <point x="232" y="703" type="line"/>
    </contour>
  </outline>
</glyph>
<glyph name="S" format="2">
  <advance width="421"/>
  <unicode hex="0053"/>
  <outline>
    <contour>
      <point x="197" y="-12" type="curve" smooth="yes"/>
      <point x="341" y="-12"/>
      <point x="402" y="80"/>
      <point x="402" y="188" type="curve" smooth="yes"/>
      <point x="402" y="325"/>
      <point x="301" y="390"/>
      <point x="214" y="445" type="curve" smooth="yes"/>
      <point x="150" y="486"/>
      <point x="117" y="522"/>
      <point x="117" y="572" type="curve" smooth="yes"/>
      <point x="117" y="625"/>
      <point x="154" y="661"/>
      <point x="195" y="661" type="curve" smooth="yes"/>
      <point x="265" y="661"/>
      <point x="307" y="553"/>
      <point x="321" y="499" type="curve"/>
      <point x="359" y="499" type="line"/>
      <point x="359" y="661" type="line"/>
      <point x="343" y="677"/>
      <point x="285" y="712"/>
      <point x="213" y="712" type="curve" smooth="yes"/>
      <point x="118" y="712"/>
      <point x="23" y="649"/>
      <point x="23" y="518" type="curve" smooth="yes"/>
      <point x="23" y="385"/>
      <point x="121" y="317"/>
      <point x="201" y="263" type="curve" smooth="yes"/>
      <point x="263" y="221"/>
      <point x="304" y="182"/>
      <point x="304" y="129" type="curve" smooth="yes"/>
      <point x="304" y="77"/>
      <point x="262" y="42"/>
      <point x="215" y="42" type="curve" smooth="yes"/>
      <point x="117" y="42"/>
      <point x="87" y="189"/>
      <point x="66" y="242" type="curve"/>
      <point x="22" y="242" type="line"/>
      <point x="22" y="46" type="line"/>
      <point x="40" y="26"/>
      <point x="103" y="-12"/>
    </contour>
  </outline>
</glyph>
<glyph name="T" format="2">
  <advance width="480"/>
  <unicode hex="0054"/>
  <outline>
    <contour>
      <point x="169" y="665" type="line"/>
      <point x="169" y="28" type="line"/>
      <point x="311" y="28" type="line"/>
      <point x="311" y="665" type="line"/>
    </contour>
    <contour>
      <point x="126" y="43" type="line"/>
      <point x="126" y="-1" type="line"/>
      <point x="357" y="-1" type="line"/>
      <point x="357" y="43" type="line"/>
    </contour>
    <contour>
      <point x="430" y="442" type="curve"/>
      <point x="468" y="448" type="line"/>
      <point x="452" y="700" type="line"/>
      <point x="230" y="700" type="line"/>
      <point x="230" y="656" type="line"/>
      <point x="311.426" y="655.508" type="line"/>
      <point x="369.984" y="660"/>
      <point x="419.737" y="479.413"/>
    </contour>
    <contour>
      <point x="12" y="448" type="line"/>
      <point x="28" y="700" type="line"/>
      <point x="250" y="700" type="line"/>
      <point x="250" y="656" type="line"/>
      <point x="168.574" y="655.508" type="line"/>
      <point x="110.016" y="660"/>
      <point x="60.2626" y="479.413"/>
      <point x="50" y="442" type="curve"/>
    </contour>
  </outline>
</glyph>
<glyph name="U" format="2">
  <advance width="467"/>
  <unicode hex="0055"/>
  <outline>
    <contour>
      <point x="457" y="700" type="line"/>
      <point x="318" y="700" type="line"/>
      <point x="318" y="656" type="line"/>
      <point x="362" y="656" type="line"/>
      <point x="362" y="235" type="line" smooth="yes"/>
      <point x="362" y="135"/>
      <point x="340" y="99"/>
      <point x="285" y="99" type="curve" smooth="yes"/>
      <point x="230" y="99"/>
      <point x="205" y="135"/>
      <point x="205" y="235" type="curve" smooth="yes"/>
      <point x="205" y="656" type="line" name=".sk2"/>
      <point x="249" y="656" type="line"/>
      <point x="249" y="700" type="line"/>
      <point x="22" y="700" type="line"/>
      <point x="22" y="656" type="line"/>
      <point x="66" y="656" type="line"/>
      <point x="66" y="164" type="line" smooth="yes"/>
      <point x="66" y="39"/>
      <point x="154" y="-12"/>
      <point x="247" y="-12" type="curve" smooth="yes"/>
      <point x="337" y="-12"/>
      <point x="413" y="36"/>
      <point x="413" y="185" type="curve" smooth="yes"/>
      <point x="413" y="656" type="line" name=".sk4"/>
      <point x="457" y="656" type="line"/>
    </contour>
  </outline>
</glyph>
<glyph name="V" format="2">
  <advance width="423"/>
  <unicode hex="0056"/>
  <outline>
    <contour>
      <point x="164" y="0" type="line"/>
      <point x="267" y="0" type="line"/>
      <point x="406" y="656" type="line" name=".sk2"/>
      <point x="441" y="656" type="line"/>
      <point x="441" y="700" type="line"/>
      <point x="305" y="700" type="line"/>
      <point x="305" y="656" type="line"/>
      <point x="351" y="656" type="line"/>
      <point x="257" y="196" type="line"/>
      <point x="163" y="656" type="line" name=".av03"/>
      <point x="204" y="656" type="line"/>
      <point x="204" y="700" type="line"/>
      <point x="-18" y="700" type="line"/>
      <point x="-18" y="656" type="line"/>
      <point x="18" y="656" type="line"/>
    </contour>
  </outline>
</glyph>
<glyph name="W" format="2">
  <advance width="698"/>
  <unicode hex="0057"/>
  <outline>
    <contour>
      <point x="489" y="151" type="line"/>
      <point x="483" y="0" type="line"/>
      <point x="496" y="0" type="line"/>
      <point x="683" y="655" type="line"/>
      <point x="716" y="655" type="line"/>
      <point x="716" y="700" type="line"/>
      <point x="586" y="700" type="line"/>
      <point x="586" y="655" type="line"/>
      <point x="633" y="655" type="line"/>
    </contour>
    <contour>
      <point x="495" y="0" type="line"/>
      <point x="546" y="240" type="line"/>
      <point x="444" y="655" type="line"/>
      <point x="491" y="655" type="line"/>
      <point x="491" y="700" type="line"/>
      <point x="255" y="700" type="line"/>
      <point x="255" y="655" type="line"/>
      <point x="302" y="655" type="line"/>
      <point x="461" y="0" type="line"/>
    </contour>
    <contour>
      <point x="206" y="151" type="line"/>
      <point x="200" y="0" type="line"/>
      <point x="213" y="0" type="line"/>
      <point x="400" y="655" type="line"/>
      <point x="446" y="655" type="line"/>
      <point x="446" y="700" type="line"/>
      <point x="303" y="700" type="line"/>
      <point x="303" y="655" type="line"/>
      <point x="350" y="655" type="line"/>
    </contour>
    <contour>
      <point x="212" y="0" type="line"/>
      <point x="263" y="240" type="line"/>
      <point x="161" y="655" type="line"/>
      <point x="208" y="655" type="line"/>
      <point x="208" y="700" type="line"/>
      <point x="-17" y="700" type="line"/>
      <point x="-17" y="655" type="line"/>
      <point x="19" y="655" type="line"/>
      <point x="178" y="0" type="line"/>
    </contour>
  </outline>
</glyph>
<glyph name="X" format="2">
  <advance width="476"/>
  <unicode hex="0058"/>
  <outline>
    <contour>
      <point x="283" y="45" type="line"/>
      <point x="235" y="45" type="line"/>
      <point x="235" y="0" type="line"/>
      <point x="481" y="0" type="line"/>
      <point x="481" y="45" type="line"/>
      <point x="439" y="45" type="line"/>
      <point x="303" y="388" type="line"/>
      <point x="414" y="655" type="line"/>
      <point x="461" y="655" type="line"/>
      <point x="461" y="700" type="line"/>
      <point x="312" y="700" type="line"/>
      <point x="312" y="655" type="line"/>
      <point x="360" y="655" type="line"/>
      <point x="277" y="453" type="line"/>
      <point x="197" y="655" type="line"/>
      <point x="245" y="655" type="line"/>
      <point x="245" y="700" type="line"/>
      <point x="0" y="700" type="line"/>
      <point x="0" y="655" type="line"/>
      <point x="42" y="655" type="line"/>
      <point x="168" y="336" type="line"/>
      <point x="47" y="45" type="line"/>
      <point x="0" y="45" type="line"/>
      <point x="0" y="0" type="line"/>
      <point x="149" y="0" type="line"/>
      <point x="149" y="45" type="line"/>
      <point x="101" y="45" type="line"/>
      <point x="194" y="271" type="line"/>
    </contour>
  </outline>
</glyph>
<glyph name="Y" format="2">
  <advance width="440"/>
  <unicode hex="0059"/>
  <outline>
    <contour>
      <point x="292" y="304" type="line"/>
      <point x="410" y="655" type="line"/>
      <point x="445" y="655" type="line"/>
      <point x="445" y="700" type="line"/>
      <point x="314" y="700" type="line"/>
      <point x="314" y="655" type="line"/>
      <point x="361" y="655" type="line"/>
      <point x="267" y="378" type="line"/>
      <point x="174" y="655" type="line"/>
      <point x="221" y="655" type="line"/>
      <point x="221" y="700" type="line"/>
      <point x="-5" y="700" type="line"/>
      <point x="-5" y="655" type="line"/>
      <point x="31" y="655" type="line"/>
      <point x="150" y="304" type="line"/>
      <point x="150" y="44" type="line"/>
      <point x="105" y="44" type="line"/>
      <point x="105" y="-1" type="line"/>
      <point x="337" y="-1" type="line"/>
      <point x="337" y="44" type="line"/>
      <point x="292" y="44" type="line"/>
    </contour>
  </outline>
</glyph>
<glyph name="Z" format="2">
  <advance width="445"/>
  <unicode hex="005A"/>
  <outline>
    <contour>
      <point x="431" y="675" type="line"/>
      <point x="165" y="47" type="line"/>
      <point x="168" y="47" type="line" smooth="yes"/>
      <point x="269" y="47"/>
      <point x="366" y="147"/>
      <point x="406" y="287" type="curve"/>
      <point x="449" y="278" type="line"/>
      <point x="389" y="0" type="line"/>
      <point x="14" y="0" type="line"/>
      <point x="14" y="25" type="line"/>
      <point x="282" y="655" type="line"/>
      <point x="278" y="655" type="line" smooth="yes"/>
      <point x="179" y="655"/>
      <point x="100" y="583"/>
      <point x="64" y="438" type="curve"/>
      <point x="27" y="445" type="line"/>
      <point x="57" y="700" type="line"/>
      <point x="431" y="700" type="line"/>
    </contour>
  </outline>
</glyph>
<glyph name="asciicircum" format="2">
  <advance width="307"/>
  <unicode hex="005E"/>
  <outline>
    <contour>
      <point x="247" y="465" type="line"/>
      <point x="297" y="465" type="line"/>
      <point x="175" y="700" type="line"/>
      <point x="132" y="700" type="line"/>
      <point x="11" y="465" type="line"/>
      <point x="61" y="465" type="line"/>
      <point x="154" y="652" type="line"/>
    </contour>
  </outline>
</glyph>
<glyph name="underscore" format="2">
  <advance width="444"/>
  <unicode hex="005F"/>
  <outline>
    <contour>
      <point x="0" y="-75" type="line"/>
      <point x="444" y="-75" type="line"/>
      <point x="444" y="-30" type="line"/>
      <point x="0" y="-30" type="line"/>
    </contour>
  </outline>
</glyph>
<glyph name="n" format="2">
  <advance width="513"/>
  <unicode hex="006E"/>
  <outline>
    <contour>
      <point x="20" y="0.25" type="line"/>
      <point x="243" y="0.25" type="line"/>
      <point x="243" y="44.5" type="line"/>
      <point x="198" y="44.5" type="line"/>
      <point x="198" y="265" type="line"/>
      <point x="315" y="265" type="line"/>
      <point x="315" y="44.5" type="line"/>
      <point x="270" y="44.5" type="line"/>
      <point x="270" y="0.25" type="line"/>
      <point x="493" y="0.25" type="line"/>
      <point x="493" y="44.5" type="line"/>
      <point x="448" y="44.5" type="line"/>
      <point x="448" y="500.25" type="line"/>
      <point x="493" y="500.25" type="line"/>
      <point x="493" y="545.5" type="line"/>
      <point x="270" y="545.5" type="line"/>
      <point x="270" y="500.25" type="line"/>
      <point x="315" y="500.25" type="line"/>
      <point x="315" y="310" type="line"/>
      <point x="198" y="310" type="line"/>
      <point x="198" y="500.25" type="line"/>
      <point x="243" y="500.25" type="line"/>
      <point x="243" y="545.5" type="line"/>
      <point x="20" y="545.5" type="line"/>
      <point x="20" y="500.25" type="line"/>
      <point x="65" y="500.25" type="line"/>
      <point x="65" y="44.5" type="line"/>
      <point x="20" y="44.5" type="line"/>
    </contour>
  </outline>
</glyph>
<glyph name="braceleft" format="2">
  <advance width="291"/>
  <unicode hex="007B"/>
  <outline>
    <contour>
      <point x="106.338" y="330" type="line"/>
      <point x="241.957" y="348.342"/>
      <point x="248.443" y="473.575"/>
      <point x="254.577" y="592.026" type="curve" smooth="yes"/>
      <point x="259.479" y="686.687"/>
      <point x="264.157" y="777.017"/>
      <point x="334.338" y="805" type="curve"/>
      <point x="317.338" y="833" type="line"/>
      <point x="207.855" y="779.037"/>
      <point x="203.104" y="654.535"/>
      <point x="199.008" y="547.224" type="curve" smooth="yes"/>
      <point x="195.211" y="447.722"/>
      <point x="191.978" y="363"/>
      <point x="106.338" y="363" type="curve"/>
    </contour>
    <contour>
      <point x="106.338" y="362" type="line"/>
      <point x="241.957" y="343.658"/>
      <point x="248.443" y="218.425"/>
      <point x="254.577" y="99.974" type="curve" smooth="yes"/>
      <point x="259.479" y="5.313"/>
      <point x="264.157" y="-85.017"/>
      <point x="334.338" y="-113" type="curve"/>
      <point x="317.338" y="-141" type="line"/>
      <point x="207.855" y="-87.037"/>
      <point x="203.104" y="37.465"/>
      <point x="199.008" y="144.776" type="curve" smooth="yes"/>
      <point x="195.211" y="244.278"/>
      <point x="191.978" y="329"/>
      <point x="106.338" y="329" type="curve"/>
    </contour>
  </outline>
</glyph>
<glyph name="braceright" format="2">
  <advance width="298"/>
  <unicode hex="007D"/>
  <outline>
    <contour>
      <point x="222.693" y="330.007" type="line"/>
      <point x="87.0743" y="348.349"/>
      <point x="80.5883" y="473.582"/>
      <point x="74.4543" y="592.033" type="curve" smooth="yes"/>
      <point x="69.5523" y="686.694"/>
      <point x="64.8743" y="777.024"/>
      <point x="-5.30669" y="805.007" type="curve"/>
      <point x="11.6933" y="833.007" type="line"/>
      <point x="121.176" y="779.044"/>
      <point x="125.928" y="654.542"/>
      <point x="130.023" y="547.231" type="curve" smooth="yes"/>
      <point x="133.82" y="447.729"/>
      <point x="137.053" y="363.007"/>
      <point x="222.693" y="363.007" type="curve"/>
    </contour>
    <contour>
      <point x="222.693" y="362.007" type="line"/>
      <point x="87.0743" y="343.665"/>
      <point x="80.5883" y="218.432"/>
      <point x="74.4543" y="99.9807" type="curve" smooth="yes"/>
      <point x="69.5523" y="5.31965"/>
      <point x="64.8743" y="-85.0103"/>
      <point x="-5.30669" y="-112.993" type="curve"/>
      <point x="11.6933" y="-140.993" type="line"/>
      <point x="121.176" y="-87.0303"/>
      <point x="125.928" y="37.4717"/>
      <point x="130.023" y="144.783" type="curve" smooth="yes"/>
      <point x="133.82" y="244.285"/>
      <point x="137.053" y="329.007"/>
      <point x="222.693" y="329.007" type="curve"/>
    </contour>
  </outline>
</glyph>
<glyph name="asciitilde" format="2">
  <advance width="401"/>
  <unicode hex="007E"/>
  <outline>
    <contour>
      <point x="391" y="389" type="curve"/>
      <point x="359" y="409" type="line"/>
      <point x="339" y="384"/>
      <point x="323" y="375"/>
      <point x="309" y="375" type="curve" smooth="yes"/>
      <point x="284" y="375"/>
      <point x="255" y="403"/>
      <point x="235" y="419" type="curve" smooth="yes"/>
      <point x="201" y="446"/>
      <point x="168" y="461"/>
      <point x="137" y="461" type="curve" smooth="yes"/>
      <point x="86" y="461"/>
      <point x="42" y="424"/>
      <point x="10" y="350" type="curve"/>
      <point x="42" y="330" type="line"/>
      <point x="65" y="355"/>
      <point x="85" y="364"/>
      <point x="103" y="364" type="curve" smooth="yes"/>
      <point x="129" y="364"/>
      <point x="152" y="347"/>
      <point x="175" y="327" type="curve" smooth="yes"/>
      <point x="203" y="302"/>
      <point x="235" y="278"/>
      <point x="273" y="278" type="curve" smooth="yes"/>
      <point x="322" y="278"/>
      <point x="363" y="317"/>
    </contour>
  </outline>
</glyph>
<glyph name="yen" format="2">
  <advance width="472"/>
  <unicode hex="00A5"/>
  <outline>
    <component base="Y" xOffset="15"/>
    <contour>
      <point x="35" y="276" type="line"/>
      <point x="35" y="327" type="line"/>
      <point x="436" y="327" type="line"/>
      <point x="436" y="276" type="line"/>
    </contour>
    <contour>
      <point x="308" y="424" type="line"/>
      <point x="436" y="424" type="line"/>
      <point x="436" y="373" type="line"/>
      <point x="291" y="373" type="line"/>
    </contour>
    <contour>
      <point x="230" y="373" type="line"/>
      <point x="35" y="373" type="line"/>
      <point x="35" y="424" type="line"/>
      <point x="206" y="424" type="line"/>
    </contour>
  </outline>
</glyph>
<glyph name="brokenbar" format="2">
  <advance width="331"/>
  <unicode hex="00A6"/>
  <outline>
    <contour>
      <point x="140" y="235" type="line"/>
      <point x="140" y="415" type="line"/>
      <point x="191" y="415" type="line"/>
      <point x="191" y="235" type="line"/>
    </contour>
    <contour>
      <point x="140" y="-177" type="line"/>
      <point x="191" y="-177" type="line"/>
      <point x="191" y="834" type="line"/>
      <point x="140" y="834" type="line"/>
    </contour>
  </outline>
</glyph>
<glyph name="section" format="2">
  <advance width="472"/>
  <unicode hex="00A7"/>
  <outline>
    <contour>
      <point x="288" y="464" type="curve" smooth="yes"/>
      <point x="202" y="510"/>
      <point x="145" y="543"/>
      <point x="145" y="597.628" type="curve" smooth="yes"/>
      <point x="145" y="639.099"/>
      <point x="177.849" y="668.651"/>
      <point x="213.712" y="668.764" type="curve" smooth="yes"/>
      <point x="278.421" y="668.966"/>
      <point x="331" y="573.257"/>
      <point x="331" y="501" type="curve"/>
      <point x="376" y="501" type="line"/>
      <point x="408" y="664" type="line"/>
      <point x="402.7" y="670.5"/>
      <point x="355" y="729"/>
      <point x="262.198" y="729" type="curve" smooth="yes"/>
      <point x="169" y="729"/>
      <point x="75" y="670"/>
      <point x="75" y="546" type="curve" smooth="yes"/>
      <point x="75" y="500"/>
      <point x="76" y="406"/>
      <point x="222" y="329" type="curve" smooth="yes"/>
      <point x="296" y="290"/>
      <point x="378" y="243"/>
      <point x="378" y="181.962" type="curve" smooth="yes"/>
      <point x="378" y="155"/>
      <point x="362" y="128"/>
      <point x="321" y="97" type="curve"/>
      <point x="304" y="78" type="line"/>
      <point x="348" y="44" type="line"/>
      <point x="425" y="96"/>
      <point x="452" y="179"/>
      <point x="452" y="251.325" type="curve" smooth="yes"/>
      <point x="452" y="307"/>
      <point x="436" y="385"/>
    </contour>
    <contour>
      <point x="184" y="98" type="curve" smooth="yes"/>
      <point x="270" y="52"/>
      <point x="327" y="19"/>
      <point x="327" y="-35.6284" type="curve" smooth="yes"/>
      <point x="327" y="-77.0994"/>
      <point x="294.151" y="-106.651"/>
      <point x="258.288" y="-106.764" type="curve" smooth="yes"/>
      <point x="193.579" y="-106.966"/>
      <point x="141" y="-11.2567"/>
      <point x="141" y="61" type="curve"/>
      <point x="96" y="61" type="line"/>
      <point x="64" y="-102" type="line"/>
      <point x="69.3" y="-108.5"/>
      <point x="117" y="-167"/>
      <point x="209.802" y="-167" type="curve" smooth="yes"/>
      <point x="303" y="-167"/>
      <point x="397" y="-108"/>
      <point x="397" y="16" type="curve" smooth="yes"/>
      <point x="397" y="62"/>
      <point x="396" y="156"/>
      <point x="250" y="233" type="curve" smooth="yes"/>
      <point x="176" y="272"/>
      <point x="94" y="319"/>
      <point x="94" y="380.038" type="curve" smooth="yes"/>
      <point x="94" y="407"/>
      <point x="110" y="434"/>
      <point x="151" y="465" type="curve"/>
      <point x="168" y="484" type="line"/>
      <point x="124" y="518" type="line"/>
      <point x="47" y="466"/>
      <point x="20" y="383"/>
      <point x="20" y="310.675" type="curve" smooth="yes"/>
      <point x="20" y="255"/>
      <point x="36" y="177"/>
    </contour>
  </outline>
</glyph>
<glyph name="dieresis" format="2">
  <advance width="397"/>
  <unicode hex="00A8"/>
  <outline>
    <contour>
      <point x="107" y="750" type="curve" smooth="yes"/>
      <point x="148" y="750"/>
      <point x="172" y="787"/>
      <point x="172" y="820" type="curve" smooth="yes"/>
      <point x="172" y="846"/>
      <point x="157" y="869"/>
      <point x="124" y="869" type="curve" smooth="yes"/>
      <point x="83" y="869"/>
      <point x="60" y="832"/>
      <point x="60" y="800" type="curve" smooth="yes"/>
      <point x="60" y="774"/>
      <point x="75" y="750"/>
    </contour>
    <contour>
      <point x="272" y="750" type="curve" smooth="yes"/>
      <point x="313" y="750"/>
      <point x="337" y="787"/>
      <point x="337" y="820" type="curve" smooth="yes"/>
      <point x="337" y="846"/>
      <point x="322" y="869"/>
      <point x="289" y="869" type="curve" smooth="yes"/>
      <point x="248" y="869"/>
      <point x="225" y="832"/>
      <point x="225" y="800" type="curve" smooth="yes"/>
      <point x="225" y="774"/>
      <point x="240" y="750"/>
    </contour>
  </outline>
</glyph>
<glyph name="registered" format="2">
  <advance width="350"/>
  <unicode hex="00AE"/>
  <outline>
    <contour>
      <point x="175" y="735" type="curve" smooth="yes"/>
      <point x="254" y="735"/>
      <point x="321" y="669"/>
      <point x="321" y="588" type="curve" smooth="yes"/>
      <point x="321" y="507"/>
      <point x="254" y="441"/>
      <point x="175" y="441" type="curve" smooth="yes"/>
      <point x="94" y="441"/>
      <point x="29" y="507"/>
      <point x="29" y="588" type="curve" smooth="yes"/>
      <point x="29" y="669"/>
      <point x="94" y="735"/>
    </contour>
    <contour>
      <point x="49" y="588" type="curve" smooth="yes"/>
      <point x="49" y="518"/>
      <point x="105" y="461"/>
      <point x="175" y="461" type="curve" smooth="yes"/>
      <point x="204" y="461"/>
      <point x="232" y="472"/>
      <point x="253" y="489" type="curve"/>
      <point x="222" y="503"/>
      <point x="203" y="524"/>
      <point x="183" y="576" type="curve"/>
      <point x="178" y="575"/>
      <point x="173" y="575"/>
      <point x="168" y="575" type="curve"/>
      <point x="168" y="519" type="line"/>
      <point x="188" y="519" type="line"/>
      <point x="188" y="499" type="line"/>
      <point x="103" y="499" type="line"/>
      <point x="103" y="519" type="line"/>
      <point x="122" y="519" type="line"/>
      <point x="122" y="680" type="line"/>
      <point x="168" y="680" type="line"/>
      <point x="213" y="680"/>
      <point x="253" y="666"/>
      <point x="253" y="626" type="curve" smooth="yes"/>
      <point x="253" y="605"/>
      <point x="243" y="592"/>
      <point x="227" y="585" type="curve"/>
      <point x="229" y="577"/>
      <point x="244" y="534"/>
      <point x="268" y="503" type="curve"/>
      <point x="288" y="526"/>
      <point x="301" y="555"/>
      <point x="301" y="588" type="curve" smooth="yes"/>
      <point x="301" y="658"/>
      <point x="243" y="715"/>
      <point x="175" y="715" type="curve" smooth="yes"/>
      <point x="105" y="715"/>
      <point x="49" y="658"/>
    </contour>
    <contour>
      <point x="207" y="621" type="curve" smooth="yes"/>
      <point x="207" y="624" type="line" smooth="yes"/>
      <point x="208" y="625"/>
      <point x="208" y="626"/>
      <point x="208" y="628" type="curve" smooth="yes"/>
      <point x="207" y="647"/>
      <point x="195" y="660"/>
      <point x="168" y="660" type="curve"/>
      <point x="168" y="590" type="line"/>
      <point x="188" y="592"/>
      <point x="205" y="596"/>
    </contour>
    <contour>
      <point x="103" y="660" type="line"/>
      <point x="103" y="680" type="line"/>
      <point x="122" y="680" type="line"/>
      <point x="122" y="660" type="line"/>
    </contour>
  </outline>
</glyph>
<glyph name="macron" format="2">
  <advance width="268"/>
  <unicode hex="00AF"/>
  <outline>
    <contour>
      <point x="25" y="759" type="line"/>
      <point x="266" y="759" type="line"/>
      <point x="248" y="834" type="line"/>
      <point x="20" y="797" type="line"/>
    </contour>
  </outline>
</glyph>
<glyph name="degree" format="2">
  <advance width="292"/>
  <unicode hex="00B0"/>
  <outline>
    <contour>
      <point x="139" y="446" type="curve" smooth="yes"/>
      <point x="225" y="446"/>
      <point x="267" y="511"/>
      <point x="267" y="576" type="curve" smooth="yes"/>
      <point x="267" y="641"/>
      <point x="225" y="706"/>
      <point x="139" y="706" type="curve" smooth="yes"/>
      <point x="54" y="706"/>
      <point x="11" y="641"/>
      <point x="11" y="576" type="curve" smooth="yes"/>
      <point x="11" y="511"/>
      <point x="54" y="446"/>
    </contour>
    <contour>
      <point x="139" y="649" type="curve" smooth="yes"/>
      <point x="187" y="649"/>
      <point x="211" y="613"/>
      <point x="211" y="577" type="curve" smooth="yes"/>
      <point x="211" y="540"/>
      <point x="187" y="503"/>
      <point x="139" y="503" type="curve" smooth="yes"/>
      <point x="91" y="503"/>
      <point x="67" y="540"/>
      <point x="67" y="577" type="curve" smooth="yes"/>
      <point x="67" y="613"/>
      <point x="91" y="649"/>
    </contour>
  </outline>
</glyph>
<glyph name="plusminus" format="2">
  <advance width="360"/>
  <unicode hex="00B1"/>
  <outline>
    <contour>
      <point x="40" y="384" type="line"/>
      <point x="40" y="428" type="line"/>
      <point x="158" y="428" type="line"/>
      <point x="158" y="544" type="line"/>
      <point x="202" y="544" type="line"/>
      <point x="202" y="428" type="line"/>
      <point x="320" y="428" type="line"/>
      <point x="320" y="384" type="line"/>
      <point x="202" y="384" type="line"/>
      <point x="202" y="264" type="line"/>
      <point x="158" y="264" type="line"/>
      <point x="158" y="384" type="line"/>
    </contour>
    <contour>
      <point x="40" y="198" type="line"/>
      <point x="40" y="242" type="line"/>
      <point x="320" y="242" type="line"/>
      <point x="320" y="198" type="line"/>
    </contour>
  </outline>
</glyph>
<glyph name="acute" format="2">
  <advance width="281"/>
  <unicode hex="00B4"/>
  <outline>
    <contour>
      <point x="103" y="741" type="curve"/>
      <point x="127" y="735" type="line"/>
      <point x="170" y="767"/>
      <point x="214" y="804"/>
      <point x="246" y="851" type="curve"/>
      <point x="150" y="872" type="line"/>
      <point x="138" y="829"/>
      <point x="127" y="793"/>
    </contour>
  </outline>
</glyph>
<glyph name="cedilla" format="2">
  <advance width="281"/>
  <unicode hex="00B8"/>
  <outline>
    <contour>
      <point x="85" y="-58" type="line"/>
      <point x="124" y="-52"/>
      <point x="144" y="-70"/>
      <point x="144" y="-94" type="curve" smooth="yes"/>
      <point x="144" y="-125"/>
      <point x="108" y="-140"/>
      <point x="67" y="-133" type="curve"/>
      <point x="64" y="-151" type="line"/>
      <point x="77" y="-159"/>
      <point x="102" y="-171"/>
      <point x="127" y="-171" type="curve" smooth="yes"/>
      <point x="165" y="-171"/>
      <point x="220" y="-143"/>
      <point x="220" y="-94" type="curve" smooth="yes"/>
      <point x="220" y="-50"/>
      <point x="178" y="-26"/>
      <point x="132" y="-20" type="curve"/>
      <point x="167" y="14" type="line"/>
      <point x="132" y="27" type="line"/>
      <point x="72" y="-38" type="line"/>
    </contour>
  </outline>
</glyph>
<glyph name="Aring" format="2">
  <advance width="484"/>
  <unicode hex="00C5"/>
  <outline>
    <component base="ring" xOffset="106" yOffset="-10"/>
    <contour>
      <point x="123" y="45" type="line"/>
      <point x="77" y="45" type="line"/>
      <point x="105" y="160" type="line"/>
      <point x="283" y="160" type="line"/>
      <point x="310" y="45" type="line"/>
      <point x="259" y="45" type="line"/>
      <point x="259" y="0" type="line"/>
      <point x="490" y="0" type="line"/>
      <point x="490" y="45" type="line"/>
      <point x="455" y="45" type="line"/>
      <point x="300" y="700" type="line"/>
      <point x="185" y="700" type="line"/>
      <point x="25" y="45" type="line"/>
      <point x="-10" y="45" type="line"/>
      <point x="-10" y="0" type="line"/>
      <point x="123" y="0" type="line"/>
    </contour>
    <contour>
      <point x="195" y="533" type="line"/>
      <point x="272" y="205" type="line"/>
      <point x="116" y="205" type="line"/>
    </contour>
  </outline>
</glyph>
<glyph name="AE" format="2">
  <advance width="715"/>
  <unicode hex="00C6"/>
  <outline>
    <contour>
      <point x="142" y="45" type="line"/>
      <point x="94" y="45" type="line"/>
      <point x="139" y="160" type="line"/>
      <point x="294" y="160" type="line"/>
      <point x="294" y="45" type="line"/>
      <point x="245" y="45" type="line"/>
      <point x="245" y="0" type="line"/>
      <point x="673" y="0" type="line"/>
      <point x="726" y="278" type="line"/>
      <point x="683" y="287" type="line"/>
      <point x="657" y="178"/>
      <point x="588" y="50"/>
      <point x="435" y="50" type="curve"/>
      <point x="435" y="373" type="line"/>
      <point x="496" y="361"/>
      <point x="535" y="327"/>
      <point x="562" y="266" type="curve"/>
      <point x="605" y="281" type="line"/>
      <point x="545" y="545" type="line"/>
      <point x="502" y="533" type="line"/>
      <point x="505" y="482"/>
      <point x="472" y="440"/>
      <point x="435" y="418" type="curve"/>
      <point x="435" y="644" type="line"/>
      <point x="472" y="646"/>
      <point x="616" y="610"/>
      <point x="657" y="500" type="curve"/>
      <point x="692" y="512" type="line"/>
      <point x="631" y="700" type="line"/>
      <point x="219" y="700" type="line"/>
      <point x="219" y="655" type="line"/>
      <point x="286" y="655" type="line"/>
      <point x="44" y="45" type="line"/>
      <point x="10" y="45" type="line"/>
      <point x="10" y="0" type="line"/>
      <point x="142" y="0" type="line"/>
    </contour>
    <contour>
      <point x="294" y="205" type="line"/>
      <point x="157" y="205" type="line"/>
      <point x="294" y="551" type="line"/>
    </contour>
  </outline>
</glyph>
<glyph name="Eth" format="2">
  <advance width="552"/>
  <unicode hex="00D0"/>
  <outline>
    <component base="D" xOffset="23.377"/>
    <contour>
      <point x="22" y="333" type="line"/>
      <point x="306" y="333" type="line"/>
      <point x="306" y="385" type="line"/>
      <point x="22" y="385" type="line"/>
    </contour>
  </outline>
</glyph>
<glyph name="multiply" format="2">
  <advance width="340"/>
  <unicode hex="00D7"/>
  <outline>
    <contour>
      <point x="44" y="446" type="line"/>
      <point x="75" y="477" type="line"/>
      <point x="170" y="382" type="line"/>
      <point x="265" y="477" type="line"/>
      <point x="296" y="446" type="line"/>
      <point x="201" y="351" type="line"/>
      <point x="296" y="256" type="line"/>
      <point x="265" y="225" type="line"/>
      <point x="170" y="320" type="line"/>
      <point x="75" y="225" type="line"/>
      <point x="44" y="256" type="line"/>
      <point x="139" y="351" type="line"/>
    </contour>
  </outline>
</glyph>
<glyph name="divide" format="2">
  <advance width="340"/>
  <unicode hex="00F7"/>
  <outline>
    <component base="minus" yOffset="-0.671441"/>
    <contour>
      <point x="133" y="246" type="curve" smooth="yes"/>
      <point x="133" y="266"/>
      <point x="149" y="282"/>
      <point x="170" y="282" type="curve" smooth="yes"/>
      <point x="191" y="282"/>
      <point x="207" y="266"/>
      <point x="207" y="246" type="curve" smooth="yes"/>
      <point x="207" y="226"/>
      <point x="191" y="210"/>
      <point x="170" y="210" type="curve" smooth="yes"/>
      <point x="149" y="210"/>
      <point x="133" y="226"/>
    </contour>
    <contour>
      <point x="133" y="457" type="curve" smooth="yes"/>
      <point x="133" y="477"/>
      <point x="149" y="493"/>
      <point x="170" y="493" type="curve" smooth="yes"/>
      <point x="191" y="493"/>
      <point x="207" y="477"/>
      <point x="207" y="457" type="curve" smooth="yes"/>
      <point x="207" y="436"/>
      <point x="191" y="420"/>
      <point x="170" y="420" type="curve" smooth="yes"/>
      <point x="149" y="420"/>
      <point x="133" y="436"/>
    </contour>
  </outline>
</glyph>
<glyph name="Hbar" format="2">
  <advance width="553"/>
  <unicode hex="0126"/>
  <outline>
    <component base="H" xOffset="8"/>
    <contour>
      <point x="4" y="516" type="line"/>
      <point x="550" y="516" type="line"/>
      <point x="550" y="568" type="line"/>
      <point x="4" y="568" type="line"/>
    </contour>
  </outline>
</glyph>
<glyph name="Iogonek" format="2">
  <advance width="278"/>
  <unicode hex="012E"/>
  <outline>
    <component base="I" xOffset="1"/>
    <contour>
      <point x="139" y="-101" type="curve" smooth="yes"/>
      <point x="139" y="-90" type="line"/>
      <point x="139" y="-58"/>
      <point x="155" y="-20"/>
      <point x="206" y="1" type="curve"/>
      <point x="140" y="1" type="line"/>
      <point x="76" y="-32"/>
      <point x="51" y="-80"/>
      <point x="51" y="-122" type="curve" smooth="yes"/>
      <point x="51" y="-172"/>
      <point x="88" y="-198"/>
      <point x="138" y="-198" type="curve" smooth="yes"/>
      <point x="177" y="-198"/>
      <point x="217" y="-183"/>
      <point x="229" y="-173" type="curve"/>
      <point x="230" y="-154" type="line"/>
      <point x="224" y="-155"/>
      <point x="218" y="-155"/>
      <point x="212" y="-155" type="curve" smooth="yes"/>
      <point x="177" y="-155"/>
      <point x="142" y="-144"/>
    </contour>
  </outline>
</glyph>
<glyph name="Lcaron" format="2">
  <advance width="459"/>
  <unicode hex="013D"/>
  <outline>
    <component base="L"/>
    <contour>
      <point x="309" y="509" type="line"/>
      <point x="351" y="509" type="line"/>
      <point x="458" y="700" type="line"/>
      <point x="339" y="700" type="line"/>
    </contour>
  </outline>
</glyph>
<glyph name="Lslash" format="2">
  <advance width="427"/>
  <unicode hex="0141"/>
  <outline>
    <component base="L"/>
    <contour>
      <point x="20" y="226" type="line"/>
      <point x="356" y="433" type="line"/>
      <point x="356" y="485" type="line"/>
      <point x="20" y="278" type="line"/>
    </contour>
  </outline>
</glyph>
<glyph name="OE" format="2">
  <advance width="752"/>
  <unicode hex="0152"/>
  <outline>
    <contour>
      <point x="330" y="0" type="line" smooth="yes"/>
      <point x="134" y="0"/>
      <point x="23.8101" y="122"/>
      <point x="23.8101" y="356.93" type="curve"/>
      <point x="24.4965" y="556"/>
      <point x="105" y="700"/>
      <point x="330" y="700" type="curve" smooth="yes"/>
      <point x="518" y="700" type="line"/>
      <point x="518" y="654.182" type="line"/>
      <point x="471" y="654.182" type="line"/>
      <point x="471" y="45.9184" type="line"/>
      <point x="518" y="45.9184" type="line"/>
      <point x="518" y="0" type="line"/>
    </contour>
    <contour>
      <point x="330" y="50" type="curve"/>
      <point x="330" y="644" type="line"/>
      <point x="212" y="644"/>
      <point x="178.493" y="494"/>
      <point x="178.241" y="350.742" type="curve" smooth="yes"/>
      <point x="178" y="214"/>
      <point x="208" y="50"/>
    </contour>
    <contour>
      <point x="472" y="418" type="line"/>
      <point x="509" y="440"/>
      <point x="542" y="482"/>
      <point x="539" y="533" type="curve"/>
      <point x="582" y="545" type="line"/>
      <point x="642" y="281" type="line"/>
      <point x="599" y="266" type="line"/>
      <point x="572" y="327"/>
      <point x="533" y="361"/>
      <point x="472" y="373" type="curve"/>
      <point x="472" y="50" type="line"/>
      <point x="625" y="50"/>
      <point x="694" y="178"/>
      <point x="720" y="287" type="curve"/>
      <point x="763" y="278" type="line"/>
      <point x="710" y="0" type="line"/>
      <point x="331" y="0" type="line"/>
      <point x="330.5" y="700" type="line"/>
      <point x="668" y="700" type="line"/>
      <point x="729" y="512" type="line"/>
      <point x="694" y="500" type="line"/>
      <point x="653" y="610"/>
      <point x="509" y="644"/>
      <point x="472" y="644" type="curve"/>
    </contour>
  </outline>
</glyph>
<glyph name="Tbar" format="2">
  <advance width="504"/>
  <unicode hex="0166"/>
  <outline>
    <component base="T"/>
    <contour>
      <point x="54" y="296" type="line"/>
      <point x="440" y="296" type="line"/>
      <point x="440" y="348" type="line"/>
      <point x="54" y="348" type="line"/>
    </contour>
  </outline>
</glyph>
<glyph name="Uring" format="2">
  <advance width="457"/>
  <unicode hex="016E"/>
  <outline>
    <contour>
      <point x="361" y="700" type="line" name=".sk1"/>
      <point x="361" y="235" type="line" smooth="yes"/>
      <point x="361" y="135"/>
      <point x="339" y="99"/>
      <point x="284" y="99" type="curve" smooth="yes"/>
      <point x="229" y="99"/>
      <point x="204" y="135"/>
      <point x="204" y="235" type="curve" smooth="yes"/>
      <point x="204" y="656" type="line" name=".sk2"/>
      <point x="237" y="656" type="line"/>
      <point x="237" y="700" type="line"/>
      <point x="21" y="700" type="line"/>
      <point x="21" y="656" type="line"/>
      <point x="65" y="656" type="line"/>
      <point x="65" y="164" type="line" smooth="yes"/>
      <point x="65" y="39"/>
      <point x="153" y="-12"/>
      <point x="246" y="-12" type="curve" smooth="yes"/>
      <point x="336" y="-12"/>
      <point x="412" y="36"/>
      <point x="412" y="185" type="curve" smooth="yes"/>
      <point x="412" y="656" type="line" name=".sk4"/>
      <point x="456" y="656" type="line"/>
      <point x="456" y="700" type="line"/>
    </contour>
    <contour>
      <point x="334" y="700" type="line"/>
      <point x="303" y="700"/>
      <point x="286" y="724"/>
      <point x="286" y="750" type="curve" smooth="yes"/>
      <point x="286" y="775"/>
      <point x="302" y="806"/>
      <point x="338" y="806" type="curve" smooth="yes"/>
      <point x="370" y="806"/>
      <point x="386" y="781"/>
      <point x="386" y="756" type="curve" smooth="yes"/>
      <point x="386" y="747"/>
      <point x="384" y="737"/>
      <point x="379" y="728" type="curve"/>
      <point x="426" y="728" type="line"/>
      <point x="428" y="738"/>
      <point x="430" y="748"/>
      <point x="430" y="758" type="curve" smooth="yes"/>
      <point x="430" y="805"/>
      <point x="399" y="848"/>
      <point x="339" y="848" type="curve" smooth="yes"/>
      <point x="274" y="848"/>
      <point x="242" y="795"/>
      <point x="242" y="748" type="curve" smooth="yes"/>
      <point x="242" y="700"/>
      <point x="274" y="658"/>
      <point x="333" y="658" type="curve"/>
    </contour>
  </outline>
</glyph>
<glyph name="circumflex" format="2">
  <advance width="314"/>
  <unicode hex="02C6"/>
  <outline>
    <contour>
      <point x="158" y="880" type="line"/>
      <point x="134" y="880" type="line"/>
      <point x="131" y="872"/>
      <point x="88" y="797"/>
      <point x="33" y="766" type="curve"/>
      <point x="47" y="747" type="line"/>
      <point x="84" y="747"/>
      <point x="127" y="762"/>
      <point x="158" y="790" type="curve"/>
      <point x="188" y="762"/>
      <point x="231" y="747"/>
      <point x="268" y="747" type="curve"/>
      <point x="282" y="766" type="line"/>
      <point x="227" y="797"/>
      <point x="184" y="872"/>
      <point x="181" y="880" type="curve"/>
    </contour>
  </outline>
</glyph>
<glyph name="breve" format="2">
  <advance width="281"/>
  <unicode hex="02D8"/>
  <outline>
    <contour>
      <point x="140" y="825" type="curve" smooth="yes"/>
      <point x="101" y="825"/>
      <point x="61" y="840"/>
      <point x="41" y="874" type="curve"/>
      <point x="14" y="863" type="line"/>
      <point x="22" y="817"/>
      <point x="61" y="745"/>
      <point x="140" y="745" type="curve" smooth="yes"/>
      <point x="219" y="745"/>
      <point x="258" y="817"/>
      <point x="266" y="863" type="curve"/>
      <point x="239" y="874" type="line"/>
      <point x="219" y="840"/>
      <point x="179" y="825"/>
    </contour>
  </outline>
</glyph>
<glyph name="dotaccent" format="2">
  <advance width="281"/>
  <unicode hex="02D9"/>
  <outline>
    <contour>
      <point x="140" y="750" type="curve" smooth="yes"/>
      <point x="187" y="750"/>
      <point x="211" y="780"/>
      <point x="211" y="810" type="curve" smooth="yes"/>
      <point x="211" y="839"/>
      <point x="187" y="869"/>
      <point x="140" y="869" type="curve" smooth="yes"/>
      <point x="93" y="869"/>
      <point x="70" y="839"/>
      <point x="70" y="810" type="curve" smooth="yes"/>
      <point x="70" y="780"/>
      <point x="93" y="750"/>
    </contour>
  </outline>
</glyph>
<glyph name="ring" format="2">
  <advance width="281"/>
  <unicode hex="02DA"/>
  <outline>
    <contour>
      <point x="130" y="658" type="curve" smooth="yes"/>
      <point x="196" y="658"/>
      <point x="227" y="710"/>
      <point x="227" y="758" type="curve" smooth="yes"/>
      <point x="227" y="805"/>
      <point x="196" y="848"/>
      <point x="136" y="848" type="curve" smooth="yes"/>
      <point x="71" y="848"/>
      <point x="39" y="795"/>
      <point x="39" y="748" type="curve" smooth="yes"/>
      <point x="39" y="700"/>
      <point x="71" y="658"/>
    </contour>
    <contour>
      <point x="135" y="806" type="curve" smooth="yes"/>
      <point x="167" y="806"/>
      <point x="183" y="781"/>
      <point x="183" y="756" type="curve" smooth="yes"/>
      <point x="183" y="726"/>
      <point x="162" y="700"/>
      <point x="131" y="700" type="curve" smooth="yes"/>
      <point x="100" y="700"/>
      <point x="83" y="724"/>
      <point x="83" y="750" type="curve" smooth="yes"/>
      <point x="83" y="775"/>
      <point x="99" y="806"/>
    </contour>
  </outline>
</glyph>
<glyph name="ogonek" format="2">
  <advance width="281"/>
  <unicode hex="02DB"/>
  <outline>
    <contour>
      <point x="113" y="-82" type="curve" smooth="yes"/>
      <point x="110" y="-63"/>
      <point x="119" y="-29"/>
      <point x="196" y="8" type="curve"/>
      <point x="153" y="17" type="line"/>
      <point x="80" y="-17"/>
      <point x="31" y="-55"/>
      <point x="31" y="-106" type="curve" smooth="yes"/>
      <point x="31" y="-151"/>
      <point x="70" y="-169"/>
      <point x="110" y="-169" type="curve" smooth="yes"/>
      <point x="151" y="-169"/>
      <point x="189" y="-151"/>
      <point x="219" y="-128" type="curve"/>
      <point x="212" y="-114" type="line"/>
      <point x="195" y="-119"/>
      <point x="180" y="-121"/>
      <point x="167" y="-121" type="curve" smooth="yes"/>
      <point x="131" y="-121"/>
      <point x="114" y="-102"/>
    </contour>
  </outline>
</glyph>
<glyph name="tilde" format="2">
  <advance width="344"/>
  <unicode hex="02DC"/>
  <outline>
    <contour>
      <point x="36" y="767" type="line"/>
      <point x="71" y="751" type="line"/>
      <point x="96" y="787" type="line"/>
      <point x="228" y="749" type="line"/>
      <point x="297" y="850" type="line"/>
      <point x="262" y="866" type="line"/>
      <point x="237" y="831" type="line"/>
      <point x="106" y="869" type="line"/>
    </contour>
  </outline>
</glyph>
<glyph name="hungarumlaut" format="2">
  <advance width="433"/>
  <unicode hex="02DD"/>
  <outline>
    <contour>
      <point x="120" y="746" type="curve"/>
      <point x="145" y="743" type="line"/>
      <point x="182" y="779"/>
      <point x="220" y="818"/>
      <point x="245" y="868" type="curve"/>
      <point x="147" y="879" type="line"/>
      <point x="145" y="837"/>
      <point x="136" y="801"/>
    </contour>
    <contour>
      <point x="203" y="761" type="curve"/>
      <point x="221" y="745" type="line"/>
      <point x="264" y="762"/>
      <point x="311" y="791"/>
      <point x="354" y="824" type="curve"/>
      <point x="287" y="872" type="line"/>
      <point x="270" y="839"/>
      <point x="238" y="794"/>
    </contour>
  </outline>
</glyph>
<glyph name="Iocyr" format="2">
  <advance width="489"/>
  <unicode hex="0401"/>
  <outline>
    <component base="E"/>
    <contour>
      <point x="130" y="869" type="curve" smooth="yes"/>
      <point x="97.5496" y="869"/>
      <point x="82.6859" y="845.485"/>
      <point x="82.6859" y="819.361" type="curve" smooth="yes"/>
      <point x="82.6859" y="786.718"/>
      <point x="105.895" y="750"/>
      <point x="147" y="750" type="curve" smooth="yes"/>
      <point x="180.158" y="750"/>
      <point x="195.138" y="773.26"/>
      <point x="195.138" y="799.212" type="curve" smooth="yes"/>
      <point x="195.138" y="831.962"/>
      <point x="171.284" y="869"/>
    </contour>
    <contour>
      <point x="295" y="869" type="curve" smooth="yes"/>
      <point x="262.55" y="869"/>
      <point x="247.686" y="845.485"/>
      <point x="247.686" y="819.361" type="curve" smooth="yes"/>
      <point x="247.686" y="786.718"/>
      <point x="270.895" y="750"/>
      <point x="312" y="750" type="curve" smooth="yes"/>
      <point x="345.158" y="750"/>
      <point x="360.138" y="773.26"/>
      <point x="360.138" y="799.212" type="curve" smooth="yes"/>
      <point x="360.138" y="831.962"/>
      <point x="336.284" y="869"/>
    </contour>
  </outline>
</glyph>
<glyph name="Ljecyr" format="2">
  <advance width="727"/>
  <unicode hex="0409"/>
  <outline>
    <component base="Softcyr" xOffset="226"/>
    <contour>
      <point x="128.866" y="11.0033" type="curve" smooth="yes"/>
      <point x="162.054" y="29.5365"/>
      <point x="173.32" y="63.1694"/>
      <point x="180.732" y="169.021" type="curve" smooth="yes"/>
      <point x="183.274" y="205.32" type="line" smooth="yes"/>
      <point x="188.366" y="278.047"/>
      <point x="197" y="449"/>
      <point x="197" y="655" type="curve"/>
      <point x="293" y="655" type="line"/>
      <point x="293" y="45" type="line"/>
      <point x="248" y="45" type="line"/>
      <point x="248" y="0" type="line"/>
      <point x="434" y="0" type="line"/>
      <point x="434" y="655" type="line"/>
      <point x="479" y="655" type="line"/>
      <point x="479" y="700" type="line"/>
      <point x="82" y="700" type="line"/>
      <point x="82" y="655" type="line"/>
      <point x="149" y="655" type="line"/>
      <point x="149" y="525.551"/>
      <point x="146.209" y="395.8"/>
      <point x="141.928" y="322.169" type="curve" smooth="yes"/>
      <point x="134.576" y="195.702"/>
      <point x="117.53" y="143.693"/>
      <point x="93.0644" y="143.693" type="curve" smooth="yes"/>
      <point x="71.5535" y="143.693"/>
      <point x="51.3446" y="183.897"/>
      <point x="33" y="237" type="curve"/>
      <point x="-13" y="228" type="line"/>
      <point x="29" y="0" type="line"/>
      <point x="70.7521" y="-0.252" type="line" smooth="yes"/>
      <point x="93.06" y="-0.2879"/>
      <point x="110.141" y="0.5463"/>
    </contour>
  </outline>
</glyph>
<glyph name="Njecyr" format="2">
  <advance width="762"/>
  <unicode hex="040A"/>
  <outline>
    <contour>
      <point x="24" y="0" type="line"/>
      <point x="255" y="0" type="line"/>
      <point x="255" y="45" type="line"/>
      <point x="210" y="45" type="line"/>
      <point x="210" y="372" type="line"/>
      <point x="345" y="372" type="line"/>
      <point x="345" y="45" type="line"/>
      <point x="300" y="45" type="line"/>
      <point x="300" y="0" type="line"/>
      <point x="486" y="0" type="line" smooth="yes"/>
      <point x="616" y="0"/>
      <point x="762" y="52"/>
      <point x="762" y="199" type="curve" smooth="yes"/>
      <point x="762" y="349"/>
      <point x="609" y="425"/>
      <point x="486" y="417" type="curve"/>
      <point x="486" y="655" type="line"/>
      <point x="531" y="655" type="line"/>
      <point x="531" y="700" type="line"/>
      <point x="299" y="700" type="line"/>
      <point x="299" y="656" type="line"/>
      <point x="300" y="656" type="line"/>
      <point x="300" y="655" type="line"/>
      <point x="345" y="655" type="line"/>
      <point x="345" y="417" type="line"/>
      <point x="210" y="417" type="line"/>
      <point x="210" y="655" type="line"/>
      <point x="255" y="655" type="line"/>
      <point x="255" y="700" type="line"/>
      <point x="24" y="700" type="line"/>
      <point x="24" y="655" type="line"/>
      <point x="69" y="655" type="line"/>
      <point x="69" y="45" type="line"/>
      <point x="24" y="45" type="line"/>
    </contour>
    <contour>
      <point x="486" y="45" type="curve"/>
      <point x="486" y="372" type="line"/>
      <point x="603" y="368"/>
      <point x="618" y="236"/>
      <point x="618" y="207" type="curve" smooth="yes"/>
      <point x="618" y="97"/>
      <point x="560" y="45"/>
    </contour>
  </outline>
</glyph>
<glyph name="Dzhecyr" format="2">
  <advance width="591"/>
  <unicode hex="040F"/>
  <outline>
    <contour>
      <point x="254" y="-167" type="curve"/>
      <point x="299" y="-167" type="line"/>
      <point x="308" y="-29"/>
      <point x="332" y="0"/>
      <point x="432" y="0" type="curve" smooth="yes"/>
      <point x="530" y="0" type="line"/>
      <point x="530" y="45" type="line"/>
      <point x="485" y="45" type="line"/>
      <point x="485" y="655" type="line"/>
      <point x="530" y="655" type="line"/>
      <point x="530" y="700" type="line"/>
      <point x="299" y="700" type="line"/>
      <point x="299" y="655" type="line"/>
      <point x="344" y="655" type="line"/>
      <point x="344" y="45" type="line"/>
      <point x="209" y="45" type="line"/>
      <point x="209" y="655" type="line"/>
      <point x="254" y="655" type="line"/>
      <point x="254" y="700" type="line"/>
      <point x="23" y="700" type="line"/>
      <point x="23" y="655" type="line"/>
      <point x="68" y="655" type="line"/>
      <point x="68" y="45" type="line"/>
      <point x="23" y="45" type="line"/>
      <point x="23" y="0" type="line"/>
      <point x="121" y="0" type="line" smooth="yes"/>
      <point x="221" y="0"/>
      <point x="245" y="-29"/>
    </contour>
  </outline>
</glyph>
<glyph name="Becyr" format="2">
  <advance width="494"/>
  <unicode hex="0411"/>
  <outline>
    <component base="softcyr" xOffset="140"/>
    <contour>
      <point x="22" y="655" type="line"/>
      <point x="66" y="655" type="line"/>
      <point x="66" y="45" type="line"/>
      <point x="22" y="45" type="line"/>
      <point x="22" y="0" type="line"/>
      <point x="208" y="0" type="line" name=".sk2"/>
      <point x="208" y="654" type="line"/>
      <point x="301" y="655"/>
      <point x="370" y="581"/>
      <point x="409" y="501" type="curve"/>
      <point x="445" y="511" type="line"/>
      <point x="402" y="700" type="line"/>
      <point x="22" y="700" type="line"/>
    </contour>
  </outline>
</glyph>
<glyph name="Vecyr" format="2">
  <advance width="507"/>
  <unicode hex="0412"/>
  <outline>
    <contour>
      <point x="22" y="45" type="line"/>
      <point x="67.5" y="45" type="line"/>
      <point x="67.5" y="655" type="line"/>
      <point x="23" y="655" type="line"/>
      <point x="23" y="700" type="line"/>
      <point x="233.459" y="700.086" type="line" smooth="yes"/>
      <point x="329.792" y="700.125"/>
      <point x="440.255" y="678.083"/>
      <point x="440.144" y="562.419" type="curve" smooth="yes"/>
      <point x="440.068" y="482.923"/>
      <point x="387.838" y="444.634"/>
      <point x="322" y="426.395" type="curve"/>
      <point x="322" y="420.116" type="line"/>
      <point x="470.263" y="395.601"/>
      <point x="496.537" y="293.639"/>
      <point x="496.537" y="222.353" type="curve" smooth="yes"/>
      <point x="496.537" y="58.7005"/>
      <point x="360.355" y="0"/>
      <point x="209" y="0" type="curve" smooth="yes"/>
      <point x="22" y="0" type="line"/>
    </contour>
    <contour>
      <point x="209" y="48" type="line"/>
      <point x="292" y="44"/>
      <point x="349" y="113.622"/>
      <point x="349" y="185.209" type="curve" smooth="yes"/>
      <point x="349" y="292.176"/>
      <point x="338.085" y="406.172"/>
      <point x="187.877" y="394.121" type="curve"/>
      <point x="191.277" y="439.028" type="line"/>
      <point x="266.911" y="440.128"/>
      <point x="308.252" y="476.792"/>
      <point x="308.18" y="554.265" type="curve" smooth="yes"/>
      <point x="308.124" y="614.569"/>
      <point x="283.018" y="655"/>
      <point x="209" y="655" type="curve"/>
    </contour>
  </outline>
</glyph>
<glyph name="Gecyr" format="2">
  <advance width="427"/>
  <unicode hex="0413"/>
  <outline>
    <contour>
      <point x="396" y="700" type="line"/>
      <point x="152" y="700" type="line"/>
      <point x="152" y="656" type="line"/>
      <point x="207.123" y="655.807" type="line" smooth="yes"/>
      <point x="310.486" y="655.444"/>
      <point x="360.123" y="525.387"/>
      <point x="387.123" y="425.058" type="curve"/>
      <point x="431" y="430.264" type="line"/>
    </contour>
    <contour>
      <point x="66.1781" y="44" type="line" name=".sk1"/>
      <point x="22.1781" y="44" type="line"/>
      <point x="22.1781" y="0" type="line"/>
      <point x="86.6614" y="0" type="line"/>
      <point x="187.517" y="0" type="line" name=".sk2"/>
      <point x="252" y="0" type="line"/>
      <point x="252" y="44" type="line"/>
      <point x="208" y="44" type="line"/>
      <point x="208" y="700" type="line" name=".sk3"/>
      <point x="86.4833" y="700" type="line" name=".sk4"/>
      <point x="22" y="700" type="line"/>
      <point x="22" y="656" type="line"/>
      <point x="66" y="656" type="line"/>
    </contour>
  </outline>
</glyph>
<glyph name="Decyr" format="2">
  <advance width="521"/>
  <unicode hex="0414"/>
  <outline>
    <contour>
      <point x="482" y="654" type="line"/>
      <point x="482" y="699" type="line"/>
      <point x="81" y="699" type="line"/>
      <point x="81" y="654" type="line"/>
      <point x="147" y="654" type="line"/>
      <point x="147" y="546"/>
      <point x="122" y="213"/>
      <point x="87" y="45" type="curve"/>
      <point x="1" y="45" type="line"/>
      <point x="19" y="-204" type="line"/>
      <point x="65" y="-199" type="line"/>
      <point x="65" y="-113"/>
      <point x="99" y="0"/>
      <point x="207" y="0" type="curve" smooth="yes"/>
      <point x="325" y="0" type="line" smooth="yes"/>
      <point x="409" y="0"/>
      <point x="453" y="-89"/>
      <point x="456" y="-199" type="curve"/>
      <point x="503" y="-204" type="line"/>
      <point x="520" y="45" type="line"/>
      <point x="437" y="45" type="line"/>
      <point x="437" y="654" type="line"/>
    </contour>
    <contour>
      <point x="198" y="654" type="curve"/>
      <point x="296" y="654" type="line"/>
      <point x="296" y="45" type="line"/>
      <point x="138" y="45" type="line"/>
      <point x="171" y="202"/>
      <point x="198" y="578"/>
    </contour>
  </outline>
</glyph>
<glyph name="Zhecyr" format="2">
  <advance width="745"/>
  <unicode hex="0416"/>
  <outline>
    <contour>
      <point x="300" y="44" type="line" name=".sk1"/>
      <point x="256" y="44" type="line"/>
      <point x="256" y="0" type="line"/>
      <point x="486" y="0" type="line"/>
      <point x="486" y="44" type="line"/>
      <point x="442" y="44" type="line"/>
      <point x="442" y="306" type="line"/>
      <point x="473" y="352" type="line"/>
      <point x="507" y="263" type="line" smooth="yes"/>
      <point x="569" y="102"/>
      <point x="610" y="-13"/>
      <point x="756" y="-77" type="curve"/>
      <point x="772" y="-70" type="line"/>
      <point x="661" y="187"/>
      <point x="600" y="440"/>
      <point x="583" y="515" type="curve"/>
      <point x="672" y="656" type="line"/>
      <point x="713" y="656" type="line"/>
      <point x="713" y="701" type="line"/>
      <point x="560" y="701" type="line"/>
      <point x="560" y="656" type="line"/>
      <point x="607" y="656" type="line"/>
      <point x="442" y="381" type="line"/>
      <point x="442" y="656" type="line" name=".sk3"/>
      <point x="486" y="656" type="line"/>
      <point x="486" y="700" type="line"/>
      <point x="256" y="700" type="line"/>
      <point x="256" y="656" type="line"/>
      <point x="300" y="656" type="line"/>
      <point x="300" y="388" type="line"/>
      <point x="141" y="656" type="line"/>
      <point x="188" y="656" type="line"/>
      <point x="188" y="701" type="line"/>
      <point x="33" y="701" type="line"/>
      <point x="33" y="656" type="line"/>
      <point x="74" y="656" type="line"/>
      <point x="162" y="516" type="line"/>
      <point x="145" y="443"/>
      <point x="85" y="188"/>
      <point x="-27" y="-70" type="curve"/>
      <point x="-10" y="-77" type="line"/>
      <point x="136" y="-13"/>
      <point x="177" y="102"/>
      <point x="239" y="263" type="curve" smooth="yes"/>
      <point x="273" y="352" type="line"/>
      <point x="300" y="312" type="line"/>
    </contour>
  </outline>
</glyph>
<glyph name="Zecyr" format="2">
  <advance width="433"/>
  <unicode hex="0417"/>
  <outline>
    <contour>
      <point x="128" y="423" type="curve"/>
      <point x="128" y="382" type="line"/>
      <point x="220" y="378"/>
      <point x="284" y="302"/>
      <point x="284" y="199" type="curve"/>
      <point x="284" y="128"/>
      <point x="254" y="42"/>
      <point x="202" y="42" type="curve" smooth="yes"/>
      <point x="133" y="42"/>
      <point x="85" y="196"/>
      <point x="69" y="262" type="curve"/>
      <point x="22" y="252" type="line"/>
      <point x="40" y="27" type="line"/>
      <point x="60" y="16"/>
      <point x="111" y="-12"/>
      <point x="196" y="-12" type="curve" smooth="yes"/>
      <point x="359" y="-12"/>
      <point x="433" y="91"/>
      <point x="433" y="208" type="curve" smooth="yes"/>
      <point x="433" y="339"/>
      <point x="339" y="403"/>
      <point x="262" y="406" type="curve"/>
      <point x="262" y="413" type="line"/>
      <point x="307" y="430"/>
      <point x="403" y="469"/>
      <point x="403" y="568" type="curve" smooth="yes"/>
      <point x="403" y="676"/>
      <point x="288" y="712"/>
      <point x="205" y="712" type="curve" smooth="yes"/>
      <point x="149" y="712"/>
      <point x="85" y="696"/>
      <point x="45" y="681" type="curve"/>
      <point x="45" y="511" type="line"/>
      <point x="83" y="511" type="line"/>
      <point x="93" y="567"/>
      <point x="136" y="660"/>
      <point x="198" y="660" type="curve" smooth="yes"/>
      <point x="241" y="660"/>
      <point x="265" y="614"/>
      <point x="265" y="567" type="curve" smooth="yes"/>
      <point x="265" y="520"/>
      <point x="242" y="429"/>
    </contour>
  </outline>
</glyph>
<glyph name="Icyr" format="2">
  <advance width="578"/>
  <unicode hex="0418"/>
  <outline>
    <contour>
      <point x="23" y="0" type="line"/>
      <point x="209" y="0" type="line"/>
      <point x="369" y="540" type="line"/>
      <point x="369" y="45" type="line"/>
      <point x="324" y="45" type="line"/>
      <point x="324" y="0" type="line"/>
      <point x="556" y="0" type="line"/>
      <point x="556" y="45" type="line"/>
      <point x="511" y="45" type="line"/>
      <point x="511" y="655" type="line"/>
      <point x="556" y="655" type="line"/>
      <point x="556" y="700" type="line"/>
      <point x="371" y="700" type="line"/>
      <point x="209" y="153" type="line"/>
      <point x="209" y="655" type="line"/>
      <point x="254" y="655" type="line"/>
      <point x="254" y="700" type="line"/>
      <point x="23" y="700" type="line"/>
      <point x="23" y="655" type="line"/>
      <point x="67" y="655" type="line"/>
      <point x="67" y="45" type="line"/>
      <point x="23" y="45" type="line"/>
    </contour>
  </outline>
</glyph>
<glyph name="Kacyr" format="2">
  <advance width="526"/>
  <unicode hex="041A"/>
  <outline>
    <contour>
      <point x="66" y="44" type="line" name=".sk1"/>
      <point x="22" y="44" type="line"/>
      <point x="22" y="0" type="line"/>
      <point x="252" y="0" type="line"/>
      <point x="252" y="44" type="line"/>
      <point x="208" y="44" type="line"/>
      <point x="208" y="313" type="line"/>
      <point x="230" y="345" type="line"/>
      <point x="315" y="124"/>
      <point x="378" y="8"/>
      <point x="536" y="-78" type="curve"/>
      <point x="551" y="-70" type="line"/>
      <point x="498" y="52"/>
      <point x="467" y="134"/>
      <point x="346" y="509" type="curve"/>
      <point x="449" y="656" type="line" name=".sk5"/>
      <point x="495" y="656" type="line"/>
      <point x="495" y="700" type="line"/>
      <point x="328" y="700" type="line"/>
      <point x="328" y="656" type="line"/>
      <point x="379" y="656" type="line"/>
      <point x="208" y="386" type="line"/>
      <point x="208" y="656" type="line" name=".sk3"/>
      <point x="252" y="656" type="line"/>
      <point x="252" y="700" type="line"/>
      <point x="22" y="700" type="line"/>
      <point x="22" y="656" type="line"/>
      <point x="66" y="656" type="line"/>
    </contour>
  </outline>
</glyph>
<glyph name="Elcyr" format="2">
  <advance width="501"/>
  <unicode hex="041B"/>
  <outline>
    <contour>
      <point x="293" y="655" type="line"/>
      <point x="293" y="45" type="line"/>
      <point x="248" y="45" type="line"/>
      <point x="248" y="0" type="line"/>
      <point x="479" y="0" type="line"/>
      <point x="479" y="45" type="line"/>
      <point x="434" y="45" type="line"/>
      <point x="434" y="655" type="line"/>
      <point x="479" y="655" type="line"/>
      <point x="479" y="700" type="line"/>
      <point x="82" y="700" type="line"/>
      <point x="82" y="655" type="line"/>
      <point x="149" y="655" type="line"/>
      <point x="149" y="526"/>
      <point x="146" y="396"/>
      <point x="142" y="322" type="curve" smooth="yes"/>
      <point x="135" y="196"/>
      <point x="118" y="144"/>
      <point x="93" y="144" type="curve" smooth="yes"/>
      <point x="71" y="144"/>
      <point x="49" y="184"/>
      <point x="31" y="237" type="curve"/>
      <point x="-15" y="228" type="line"/>
      <point x="29" y="0" type="line"/>
      <point x="71" y="0" type="line" smooth="yes"/>
      <point x="93" y="0"/>
      <point x="110" y="1"/>
      <point x="129" y="11" type="curve" smooth="yes"/>
      <point x="162" y="30"/>
      <point x="173" y="63"/>
      <point x="181" y="169" type="curve" smooth="yes"/>
      <point x="183" y="205" type="line" smooth="yes"/>
      <point x="188" y="278"/>
      <point x="197" y="449"/>
      <point x="197" y="655" type="curve"/>
    </contour>
  </outline>
</glyph>
<glyph name="Encyr" format="2">
  <advance width="551"/>
  <unicode hex="041D"/>
  <outline>
    <contour>
      <point x="23" y="-1" type="line"/>
      <point x="254" y="-1" type="line"/>
      <point x="254" y="44" type="line"/>
      <point x="209" y="44" type="line"/>
      <point x="209" y="352" type="line"/>
      <point x="344" y="352" type="line"/>
      <point x="344" y="44" type="line"/>
      <point x="299" y="44" type="line"/>
      <point x="299" y="-1" type="line"/>
      <point x="530" y="-1" type="line"/>
      <point x="530" y="44" type="line"/>
      <point x="485" y="44" type="line"/>
      <point x="485" y="655" type="line"/>
      <point x="530" y="655" type="line"/>
      <point x="530" y="700" type="line"/>
      <point x="299" y="700" type="line"/>
      <point x="299" y="655" type="line"/>
      <point x="344" y="655" type="line"/>
      <point x="344" y="402" type="line"/>
      <point x="209" y="402" type="line"/>
      <point x="209" y="655" type="line"/>
      <point x="254" y="655" type="line"/>
      <point x="254" y="700" type="line"/>
      <point x="23" y="700" type="line"/>
      <point x="23" y="655" type="line"/>
      <point x="68" y="655" type="line"/>
      <point x="68" y="44" type="line"/>
      <point x="23" y="44" type="line"/>
    </contour>
  </outline>
</glyph>
<glyph name="Pecyr" format="2">
  <advance width="553"/>
  <unicode hex="041F"/>
  <outline>
    <contour>
      <point x="345" y="44" type="line" name=".sk1"/>
      <point x="301" y="44" type="line"/>
      <point x="301" y="0" type="line"/>
      <point x="531" y="0" type="line"/>
      <point x="531" y="44" type="line"/>
      <point x="487" y="44" type="line"/>
      <point x="487" y="656" type="line" name=".sk3"/>
      <point x="531" y="656" type="line"/>
      <point x="531" y="700" type="line"/>
      <point x="23" y="700" type="line"/>
      <point x="23" y="656" type="line"/>
      <point x="67" y="656" type="line"/>
      <point x="67" y="44" type="line" name=".sk1"/>
      <point x="23" y="44" type="line"/>
      <point x="23" y="0" type="line"/>
      <point x="253" y="0" type="line"/>
      <point x="253" y="44" type="line"/>
      <point x="209" y="44" type="line"/>
      <point x="209" y="655" type="line"/>
      <point x="345" y="655" type="line"/>
    </contour>
  </outline>
</glyph>
<glyph name="Ercyr" format="2">
  <advance width="487"/>
  <unicode hex="0420"/>
  <outline>
    <contour>
      <point x="188.659" y="652.156" type="line"/>
      <point x="197.934" y="654.216"/>
      <point x="206.648" y="655.165"/>
      <point x="214.834" y="655.15" type="curve" smooth="yes"/>
      <point x="305.112" y="654.98"/>
      <point x="331.092" y="537.518"/>
      <point x="335.407" y="499.956" type="curve" smooth="yes"/>
      <point x="336.5" y="490.444"/>
      <point x="337.472" y="475.013"/>
      <point x="337.472" y="458.991" type="curve" smooth="yes"/>
      <point x="337.472" y="373.999"/>
      <point x="310.113" y="272.375"/>
      <point x="189.043" y="285.083" type="curve"/>
      <point x="193.428" y="241.217" type="line"/>
      <point x="211.812" y="238.178"/>
      <point x="229.508" y="236.73"/>
      <point x="246.462" y="236.714" type="curve" smooth="yes"/>
      <point x="394.508" y="236.583"/>
      <point x="486.064" y="345.844"/>
      <point x="486.044" y="471.819" type="curve" smooth="yes"/>
      <point x="486.018" y="626.791"/>
      <point x="347.42" y="705.785"/>
      <point x="193.439" y="699.67" type="curve"/>
    </contour>
    <contour>
      <point x="66.1781" y="44" type="line" name=".sk1"/>
      <point x="22.1781" y="44" type="line"/>
      <point x="22.1781" y="0" type="line"/>
      <point x="86.6614" y="0" type="line"/>
      <point x="187.517" y="0" type="line" name=".sk2"/>
      <point x="252" y="0" type="line"/>
      <point x="252" y="44" type="line"/>
      <point x="208" y="44" type="line"/>
      <point x="208" y="700" type="line" name=".sk3"/>
      <point x="86.4833" y="700" type="line" name=".sk4"/>
      <point x="22" y="700" type="line"/>
      <point x="22" y="656" type="line"/>
      <point x="66" y="656" type="line"/>
    </contour>
  </outline>
</glyph>
<glyph name="Escyr" format="2">
  <advance width="417"/>
  <unicode hex="0421"/>
  <outline>
    <contour>
      <point x="173" y="356" type="curve" smooth="yes"/>
      <point x="173" y="482"/>
      <point x="173" y="661"/>
      <point x="230.397" y="661" type="curve" smooth="yes"/>
      <point x="285" y="661"/>
      <point x="329" y="499"/>
      <point x="340" y="465" type="curve"/>
      <point x="384" y="474" type="line"/>
      <point x="394" y="675" type="line"/>
      <point x="389.5" y="678.7"/>
      <point x="349" y="712"/>
      <point x="265.1" y="712" type="curve" smooth="yes"/>
      <point x="60" y="712"/>
      <point x="25" y="513"/>
      <point x="25" y="357" type="curve" smooth="yes"/>
      <point x="25" y="204"/>
      <point x="50" y="-12"/>
      <point x="253.333" y="-12" type="curve" smooth="yes"/>
      <point x="340.117" y="-12"/>
      <point x="376.138" y="27.3469"/>
      <point x="386.69" y="38.867" type="curve"/>
      <point x="390" y="42" type="line"/>
      <point x="390" y="249" type="line"/>
      <point x="347" y="253" type="line"/>
      <point x="321" y="140"/>
      <point x="272" y="45.4604"/>
      <point x="234.927" y="45.2825" type="curve" smooth="yes"/>
      <point x="183" y="45.0333"/>
      <point x="173" y="230"/>
    </contour>
  </outline>
</glyph>
<glyph name="Ucyr" format="2">
  <advance width="476"/>
  <unicode hex="0423"/>
  <outline>
    <contour>
      <point x="97" y="197" type="line"/>
      <point x="129" y="110"/>
      <point x="178" y="98"/>
      <point x="209.124" y="98" type="curve" smooth="yes"/>
      <point x="267" y="98"/>
      <point x="287.777" y="139.495"/>
      <point x="310" y="234" type="curve" smooth="yes"/>
      <point x="409" y="655" type="line"/>
      <point x="362" y="655" type="line"/>
      <point x="362" y="700" type="line"/>
      <point x="491" y="700" type="line"/>
      <point x="491" y="655" type="line"/>
      <point x="459" y="655" type="line"/>
      <point x="346.846" y="175.634" type="line" smooth="yes"/>
      <point x="323.926" y="77.671"/>
      <point x="299.616" y="-20.9645"/>
      <point x="182.929" y="-20.9013" type="curve" smooth="yes"/>
      <point x="160.397" y="-20.8891"/>
      <point x="136.825" y="-17.1978"/>
      <point x="111" y="-8" type="curve"/>
      <point x="55" y="185" type="line"/>
    </contour>
    <contour>
      <point x="347" y="277" type="line"/>
      <point x="316" y="232" type="line"/>
      <point x="143" y="232" type="line"/>
      <point x="44" y="655" type="line"/>
      <point x="0" y="655" type="line"/>
      <point x="0" y="700" type="line"/>
      <point x="232" y="700" type="line"/>
      <point x="232" y="655" type="line"/>
      <point x="185" y="655" type="line"/>
      <point x="274" y="277" type="line"/>
    </contour>
  </outline>
</glyph>
<glyph name="Efcyr" format="2">
  <advance width="706"/>
  <unicode hex="0424"/>
  <outline>
    <contour>
      <point x="406.019" y="565.995" type="line"/>
      <point x="523.689" y="565.995"/>
      <point x="546" y="459.394"/>
      <point x="546" y="358" type="curve" smooth="yes"/>
      <point x="546" y="256.705"/>
      <point x="523.733" y="144.275"/>
      <point x="406.362" y="144.065" type="curve"/>
      <point x="409.194" y="96.1233" type="line"/>
      <point x="550.864" y="102.529"/>
      <point x="684" y="164.233"/>
      <point x="684" y="358" type="curve" smooth="yes"/>
      <point x="684" y="551.828"/>
      <point x="550.78" y="607.063"/>
      <point x="409.06" y="613.907" type="curve"/>
    </contour>
    <contour>
      <point x="297.94" y="613.907" type="line"/>
      <point x="156.22" y="607.063"/>
      <point x="23" y="551.828"/>
      <point x="23" y="358" type="curve" smooth="yes"/>
      <point x="23" y="164.233"/>
      <point x="156.136" y="102.529"/>
      <point x="297.805" y="96.1233" type="curve"/>
      <point x="300.638" y="144.064" type="line"/>
      <point x="183.267" y="144.275"/>
      <point x="161" y="256.704"/>
      <point x="161" y="358" type="curve" smooth="yes"/>
      <point x="161" y="459.394"/>
      <point x="183.311" y="565.995"/>
      <point x="300.981" y="565.995" type="curve"/>
    </contour>
    <contour>
      <point x="282.178" y="40.2532" type="line" name=".sk1"/>
      <point x="238.178" y="40.2532" type="line"/>
      <point x="238.178" y="-5" type="line"/>
      <point x="302.661" y="-5" type="line"/>
      <point x="403.517" y="-5" type="line" name=".sk2"/>
      <point x="468" y="-5" type="line"/>
      <point x="468" y="40.2532" type="line"/>
      <point x="424" y="40.2532" type="line"/>
      <point x="424" y="669.684" type="line" name=".sk3"/>
      <point x="468" y="669.684" type="line"/>
      <point x="468" y="714.937" type="line"/>
      <point x="403.517" y="714.937" type="line"/>
      <point x="302.483" y="714.937" type="line" name=".sk4"/>
      <point x="238" y="714.937" type="line"/>
      <point x="238" y="669.684" type="line"/>
      <point x="282" y="669.684" type="line"/>
    </contour>
  </outline>
</glyph>
<glyph name="Hacyr" format="2">
  <advance width="476"/>
  <unicode hex="0425"/>
  <outline>
    <contour>
      <point x="283" y="45" type="line"/>
      <point x="235" y="45" type="line"/>
      <point x="235" y="0" type="line"/>
      <point x="481" y="0" type="line"/>
      <point x="481" y="45" type="line"/>
      <point x="439" y="45" type="line"/>
      <point x="303" y="388" type="line"/>
      <point x="412" y="655" type="line"/>
      <point x="459" y="655" type="line"/>
      <point x="459" y="700" type="line"/>
      <point x="312" y="700" type="line"/>
      <point x="312" y="655" type="line"/>
      <point x="360" y="655" type="line"/>
      <point x="277" y="453" type="line"/>
      <point x="197" y="655" type="line"/>
      <point x="245" y="655" type="line"/>
      <point x="245" y="700" type="line"/>
      <point x="0" y="700" type="line"/>
      <point x="0" y="655" type="line"/>
      <point x="42" y="655" type="line"/>
      <point x="169" y="334" type="line"/>
      <point x="50" y="45" type="line"/>
      <point x="3" y="45" type="line"/>
      <point x="3" y="0" type="line"/>
      <point x="150" y="0" type="line"/>
      <point x="150" y="45" type="line"/>
      <point x="102" y="45" type="line"/>
      <point x="194" y="270" type="line"/>
    </contour>
  </outline>
</glyph>
<glyph name="Tsecyr" format="2">
  <advance width="565"/>
  <unicode hex="0426"/>
  <outline>
    <contour>
      <point x="482" y="656" type="line"/>
      <point x="526" y="656" type="line"/>
      <point x="526" y="700" type="line"/>
      <point x="296" y="700" type="line"/>
      <point x="296" y="656" type="line"/>
      <point x="340" y="656" type="line" name=".sk5"/>
      <point x="340" y="44" type="line"/>
      <point x="208" y="44" type="line"/>
      <point x="208" y="656" type="line" name=".sk3"/>
      <point x="252" y="656" type="line"/>
      <point x="252" y="700" type="line"/>
      <point x="22" y="700" type="line"/>
      <point x="22" y="656" type="line"/>
      <point x="66" y="656" type="line"/>
      <point x="66" y="44" type="line" name=".sk1"/>
      <point x="22" y="44" type="line"/>
      <point x="22" y="0" type="line"/>
      <point x="373" y="0" type="line"/>
      <point x="480" y="-5"/>
      <point x="497" y="-93"/>
      <point x="510" y="-168" type="curve"/>
      <point x="554" y="-171" type="line"/>
      <point x="565" y="44" type="line"/>
      <point x="482" y="44" type="line" name=".sk2"/>
    </contour>
  </outline>
</glyph>
<glyph name="Checyr" format="2">
  <advance width="521"/>
  <unicode hex="0427"/>
  <outline>
    <contour>
      <point x="231" y="700" type="line"/>
      <point x="0" y="700" type="line"/>
      <point x="0" y="655" type="line"/>
      <point x="45" y="655" type="line"/>
      <point x="45" y="425" type="line" smooth="yes"/>
      <point x="45" y="346.251"/>
      <point x="125.618" y="279.285"/>
      <point x="228.251" y="279.285" type="curve" smooth="yes"/>
      <point x="255.948" y="279.285"/>
      <point x="285.248" y="284.162"/>
      <point x="315" y="295" type="curve"/>
      <point x="315" y="45" type="line"/>
      <point x="270" y="45" type="line"/>
      <point x="270" y="0" type="line"/>
      <point x="501" y="0" type="line"/>
      <point x="501" y="45" type="line"/>
      <point x="456" y="45" type="line"/>
      <point x="456" y="655" type="line"/>
      <point x="501" y="655" type="line"/>
      <point x="501" y="700" type="line"/>
      <point x="271" y="700" type="line"/>
      <point x="271" y="655" type="line"/>
      <point x="315" y="655" type="line"/>
      <point x="315" y="342" type="line"/>
      <point x="290.518" y="333.14"/>
      <point x="270.44" y="329.173"/>
      <point x="254.043" y="329.173" type="curve" smooth="yes"/>
      <point x="200.113" y="329.173"/>
      <point x="186" y="372.088"/>
      <point x="186" y="425" type="curve" smooth="yes"/>
      <point x="186" y="655" type="line"/>
      <point x="231" y="655" type="line"/>
    </contour>
  </outline>
</glyph>
<glyph name="Shacyr" format="2">
  <advance width="785"/>
  <unicode hex="0428"/>
  <outline>
    <contour>
      <point x="66" y="44" type="line" name=".sk1"/>
      <point x="22" y="44" type="line"/>
      <point x="22" y="0" type="line"/>
      <point x="763" y="0" type="line"/>
      <point x="763" y="44" type="line"/>
      <point x="719" y="44" type="line"/>
      <point x="719" y="656" type="line" name=".sk3"/>
      <point x="763" y="656" type="line"/>
      <point x="763" y="700" type="line"/>
      <point x="533" y="700" type="line"/>
      <point x="533" y="656" type="line"/>
      <point x="577" y="656" type="line"/>
      <point x="577" y="44" type="line" name=".sk1"/>
      <point x="427" y="44" type="line"/>
      <point x="474" y="136"/>
      <point x="487" y="210"/>
      <point x="487" y="259" type="curve" smooth="yes"/>
      <point x="487" y="373"/>
      <point x="421" y="419"/>
      <point x="421" y="550" type="curve" smooth="yes"/>
      <point x="421" y="597"/>
      <point x="437" y="656"/>
      <point x="464" y="704" type="curve"/>
      <point x="447" y="721" type="line"/>
      <point x="376" y="668"/>
      <point x="302" y="586"/>
      <point x="302" y="443" type="curve" smooth="yes"/>
      <point x="302" y="352"/>
      <point x="366" y="271"/>
      <point x="366" y="178" type="curve" smooth="yes"/>
      <point x="366" y="138"/>
      <point x="364" y="87"/>
      <point x="349" y="44" type="curve"/>
      <point x="208" y="44" type="line"/>
      <point x="208" y="656" type="line" name=".sk3"/>
      <point x="252" y="656" type="line"/>
      <point x="252" y="700" type="line"/>
      <point x="22" y="700" type="line"/>
      <point x="22" y="656" type="line"/>
      <point x="66" y="656" type="line"/>
    </contour>
  </outline>
</glyph>
<glyph name="Shchacyr" format="2">
  <advance width="805"/>
  <unicode hex="0429"/>
  <outline>
    <contour>
      <point x="596" y="0" type="line" smooth="yes"/>
      <point x="698" y="0"/>
      <point x="730" y="-104"/>
      <point x="730" y="-239" type="curve"/>
      <point x="776" y="-245" type="line"/>
      <point x="804" y="45" type="line"/>
      <point x="720" y="45" type="line"/>
      <point x="720" y="655" type="line"/>
      <point x="766" y="655" type="line"/>
      <point x="766" y="700" type="line"/>
      <point x="534" y="700" type="line"/>
      <point x="534" y="655" type="line"/>
      <point x="578" y="655" type="line"/>
      <point x="578" y="45" type="line"/>
      <point x="424" y="45" type="line"/>
      <point x="468" y="143"/>
      <point x="483" y="210"/>
      <point x="483" y="262" type="curve" smooth="yes"/>
      <point x="483" y="312"/>
      <point x="469" y="345"/>
      <point x="454" y="380" type="curve" smooth="yes"/>
      <point x="437" y="421"/>
      <point x="419" y="464"/>
      <point x="419" y="541" type="curve" smooth="yes"/>
      <point x="419" y="586"/>
      <point x="421" y="687"/>
      <point x="443" y="725" type="curve"/>
      <point x="426" y="725" type="line"/>
      <point x="364" y="664"/>
      <point x="300" y="505"/>
      <point x="300" y="415" type="curve" smooth="yes"/>
      <point x="300" y="370"/>
      <point x="316" y="325"/>
      <point x="332" y="281" type="curve" smooth="yes"/>
      <point x="348" y="238"/>
      <point x="364" y="194"/>
      <point x="364" y="148" type="curve" smooth="yes"/>
      <point x="364" y="109"/>
      <point x="362" y="82"/>
      <point x="348" y="45" type="curve"/>
      <point x="208" y="45" type="line"/>
      <point x="208" y="655" type="line"/>
      <point x="252" y="655" type="line"/>
      <point x="252" y="700" type="line"/>
      <point x="23" y="700" type="line"/>
      <point x="23" y="655" type="line"/>
      <point x="66" y="655" type="line"/>
      <point x="66" y="45" type="line"/>
      <point x="23" y="45" type="line"/>
      <point x="23" y="0" type="line"/>
    </contour>
  </outline>
</glyph>
<glyph name="Hardcyr" format="2">
  <advance width="590"/>
  <unicode hex="042A"/>
  <outline>
    <contour>
      <point x="314" y="459" type="curve"/>
      <point x="314" y="652" type="line" smooth="yes"/>
      <point x="314" y="655"/>
      <point x="354" y="655"/>
      <point x="358" y="655" type="curve"/>
      <point x="358" y="700" type="line"/>
      <point x="22" y="700" type="line"/>
      <point x="-12" y="459" type="line"/>
      <point x="29" y="451" type="line"/>
      <point x="48" y="516"/>
      <point x="107" y="644"/>
      <point x="172" y="652" type="curve"/>
      <point x="172" y="42" type="line"/>
      <point x="127" y="42" type="line"/>
      <point x="127" y="-3" type="line"/>
      <point x="314" y="-3" type="line" smooth="yes"/>
      <point x="464" y="-3"/>
      <point x="589" y="72"/>
      <point x="589" y="229" type="curve" smooth="yes"/>
      <point x="589" y="376"/>
      <point x="478" y="460"/>
      <point x="342" y="460" type="curve" smooth="yes"/>
      <point x="333" y="460"/>
      <point x="324" y="460"/>
    </contour>
    <contour>
      <point x="445" y="237" type="curve" smooth="yes"/>
      <point x="445" y="102"/>
      <point x="388" y="42"/>
      <point x="314" y="42" type="curve"/>
      <point x="314" y="414" type="line"/>
      <point x="435" y="414"/>
      <point x="445" y="273"/>
    </contour>
  </outline>
</glyph>
<glyph name="Ylongcyr" format="2">
  <advance width="719"/>
  <unicode hex="042B"/>
  <outline>
    <component base="softcyr" xScale="0.96" xOffset="132.4" yOffset="-0.112747"/>
    <contour>
      <point x="66" y="44" type="line"/>
      <point x="22" y="44" type="line"/>
      <point x="22" y="0" type="line"/>
      <point x="208" y="0" type="line" name=".sk3"/>
      <point x="208" y="656" type="line"/>
      <point x="252" y="656" type="line"/>
      <point x="252" y="700" type="line"/>
      <point x="22" y="700" type="line"/>
      <point x="22" y="656" type="line"/>
      <point x="66" y="656" type="line" name=".sk1"/>
    </contour>
    <contour>
      <point x="511" y="44" type="line" name=".sk1"/>
      <point x="467" y="44" type="line"/>
      <point x="467" y="0" type="line"/>
      <point x="697" y="0" type="line"/>
      <point x="697" y="44" type="line"/>
      <point x="653" y="44" type="line"/>
      <point x="653" y="656" type="line" name=".sk3"/>
      <point x="697" y="656" type="line"/>
      <point x="697" y="700" type="line"/>
      <point x="467" y="700" type="line"/>
      <point x="467" y="656" type="line"/>
      <point x="511" y="656" type="line"/>
    </contour>
  </outline>
</glyph>
<glyph name="Softcyr" format="2">
  <advance width="486"/>
  <unicode hex="042C"/>
  <outline>
    <contour>
      <point x="209" y="462" type="curve"/>
      <point x="209" y="655" type="line"/>
      <point x="254" y="655" type="line"/>
      <point x="254" y="700" type="line"/>
      <point x="22" y="700" type="line"/>
      <point x="22" y="655" type="line"/>
      <point x="68" y="655" type="line"/>
      <point x="68" y="45" type="line"/>
      <point x="22" y="45" type="line"/>
      <point x="22" y="0" type="line"/>
      <point x="209" y="0" type="line" smooth="yes"/>
      <point x="358.311" y="0"/>
      <point x="485.116" y="74.9811"/>
      <point x="485.115" y="232.129" type="curve" smooth="yes"/>
      <point x="485.115" y="379.94"/>
      <point x="372.93" y="463.289"/>
      <point x="237.061" y="463.292" type="curve" smooth="yes"/>
      <point x="227.917" y="463.292"/>
      <point x="218.558" y="462.877"/>
    </contour>
    <contour>
      <point x="209" y="45" type="curve"/>
      <point x="209" y="417" type="line"/>
      <point x="330" y="417"/>
      <point x="341" y="277"/>
      <point x="341" y="241" type="curve" smooth="yes"/>
      <point x="341" y="106"/>
      <point x="283" y="45"/>
    </contour>
  </outline>
</glyph>
<glyph name="Yucyr" format="2">
  <advance width="752"/>
  <unicode hex="042E"/>
  <outline>
    <contour>
      <point x="212" y="655" type="line"/>
      <point x="257" y="655" type="line"/>
      <point x="257" y="700" type="line"/>
      <point x="26" y="700" type="line"/>
      <point x="26" y="655" type="line"/>
      <point x="71" y="655" type="line"/>
      <point x="71" y="45" type="line"/>
      <point x="26" y="45" type="line"/>
      <point x="26" y="0" type="line"/>
      <point x="257" y="0" type="line"/>
      <point x="257" y="45" type="line"/>
      <point x="212" y="45" type="line"/>
      <point x="212" y="353" type="line"/>
      <point x="285" y="353" type="line"/>
      <point x="285" y="201"/>
      <point x="311" y="-12"/>
      <point x="506" y="-12" type="curve" smooth="yes"/>
      <point x="702" y="-12"/>
      <point x="728" y="203"/>
      <point x="728" y="355" type="curve" smooth="yes"/>
      <point x="728" y="506"/>
      <point x="702" y="712"/>
      <point x="506" y="712" type="curve" smooth="yes"/>
      <point x="328" y="712"/>
      <point x="291" y="543"/>
      <point x="286" y="398" type="curve"/>
      <point x="212" y="398" type="line"/>
    </contour>
    <contour>
      <point x="506" y="670" type="curve" smooth="yes"/>
      <point x="577" y="670"/>
      <point x="578" y="554"/>
      <point x="578" y="354" type="curve" smooth="yes"/>
      <point x="578" y="154"/>
      <point x="577" y="30"/>
      <point x="506" y="30" type="curve" smooth="yes"/>
      <point x="435" y="30"/>
      <point x="435" y="154"/>
      <point x="435" y="354" type="curve" smooth="yes"/>
      <point x="435" y="554"/>
      <point x="435" y="670"/>
    </contour>
  </outline>
</glyph>
<glyph name="encyr" format="2">
  <advance width="513"/>
  <unicode hex="043D"/>
  <outline>
    <contour>
      <point x="315" y="45" type="line"/>
      <point x="270" y="45" type="line"/>
      <point x="270" y="0" type="line"/>
      <point x="493" y="0" type="line"/>
      <point x="493" y="45" type="line"/>
      <point x="448" y="45" type="line"/>
      <point x="448" y="500" type="line"/>
      <point x="493" y="500" type="line"/>
      <point x="493" y="546" type="line"/>
      <point x="270" y="546" type="line"/>
      <point x="270" y="500" type="line"/>
      <point x="315" y="500" type="line"/>
      <point x="315" y="310" type="line"/>
      <point x="198" y="310" type="line"/>
      <point x="198" y="500" type="line"/>
      <point x="243" y="500" type="line"/>
      <point x="243" y="546" type="line"/>
      <point x="20" y="546" type="line"/>
      <point x="20" y="500" type="line"/>
      <point x="65" y="500" type="line"/>
      <point x="65" y="45" type="line"/>
      <point x="20" y="45" type="line"/>
      <point x="20" y="0" type="line"/>
      <point x="243" y="0" type="line"/>
      <point x="243" y="45" type="line"/>
      <point x="198" y="45" type="line"/>
      <point x="198" y="255" type="line"/>
      <point x="315" y="255" type="line"/>
    </contour>
  </outline>
</glyph>
<glyph name="ocyr" format="2">
  <advance width="605"/>
  <unicode hex="043E"/>
  <outline>
    <contour>
      <point x="253" y="670" type="curve" smooth="yes"/>
      <point x="324" y="670"/>
      <point x="325" y="554"/>
      <point x="325" y="354" type="curve" smooth="yes"/>
      <point x="325" y="154"/>
      <point x="324" y="30"/>
      <point x="253" y="30" type="curve" smooth="yes"/>
      <point x="181" y="30"/>
      <point x="179" y="154"/>
      <point x="179" y="354" type="curve" smooth="yes"/>
      <point x="179" y="554"/>
      <point x="181" y="670"/>
    </contour>
    <contour>
      <point x="474" y="354" type="curve" smooth="yes"/>
      <point x="474" y="506"/>
      <point x="449" y="712"/>
      <point x="253" y="712" type="curve" smooth="yes"/>
      <point x="57" y="712"/>
      <point x="30" y="506"/>
      <point x="30" y="354" type="curve" smooth="yes"/>
      <point x="30" y="203"/>
      <point x="57" y="-12"/>
      <point x="253" y="-12" type="curve" smooth="yes"/>
      <point x="449" y="-12"/>
      <point x="474" y="202"/>
    </contour>
  </outline>
</glyph>
<glyph name="pecyr" format="2">
  <advance width="513"/>
  <unicode hex="043F"/>
  <outline>
    <contour>
      <point x="198" y="44.5" type="line"/>
      <point x="243" y="44.5" type="line"/>
      <point x="243" y="0.25" type="line"/>
      <point x="20" y="0.25" type="line"/>
      <point x="20" y="44.5" type="line"/>
      <point x="65" y="44.5" type="line"/>
      <point x="65" y="500.25" type="line"/>
      <point x="20" y="500.25" type="line"/>
      <point x="20" y="545.5" type="line"/>
      <point x="493" y="545.5" type="line"/>
      <point x="493" y="500.25" type="line"/>
      <point x="448" y="500.25" type="line"/>
      <point x="448" y="44.5" type="line"/>
      <point x="493" y="44.5" type="line"/>
      <point x="493" y="0.25" type="line"/>
      <point x="270" y="0.25" type="line"/>
      <point x="270" y="44.5" type="line"/>
      <point x="315" y="44.5" type="line"/>
      <point x="315" y="500.25" type="line"/>
      <point x="198" y="500.25" type="line"/>
    </contour>
  </outline>
</glyph>
<glyph name="endash" format="2">
  <advance width="456"/>
  <unicode hex="2013"/>
  <outline>
    <contour>
      <point x="22" y="351" type="line" name=".sk6"/>
      <point x="433" y="351" type="line"/>
      <point x="433" y="395" type="line"/>
      <point x="22" y="395" type="line"/>
    </contour>
  </outline>
</glyph>
<glyph name="bullet" format="2">
  <advance width="376"/>
  <unicode hex="2022"/>
  <outline>
    <contour>
      <point x="188" y="231" type="curve" smooth="yes"/>
      <point x="267" y="231"/>
      <point x="307" y="289"/>
      <point x="307" y="348" type="curve" smooth="yes"/>
      <point x="307" y="406"/>
      <point x="267" y="464"/>
      <point x="188" y="464" type="curve" smooth="yes"/>
      <point x="109" y="464"/>
      <point x="70" y="406"/>
      <point x="70" y="348" type="curve" smooth="yes"/>
      <point x="70" y="290"/>
      <point x="110" y="231"/>
    </contour>
  </outline>
</glyph>
<glyph name="guilsinglleft" format="2">
  <advance width="270"/>
  <unicode hex="2039"/>
  <outline>
    <contour>
      <point x="22" y="330" type="line"/>
      <point x="77" y="299"/>
      <point x="194" y="217"/>
      <point x="247" y="161" type="curve"/>
      <point x="263" y="180" type="line"/>
      <point x="249" y="214"/>
      <point x="204" y="290"/>
      <point x="150" y="349" type="curve"/>
      <point x="204" y="408"/>
      <point x="249" y="484"/>
      <point x="263" y="518" type="curve"/>
      <point x="247" y="537" type="line"/>
      <point x="194" y="481"/>
      <point x="77" y="399"/>
      <point x="22" y="368" type="curve"/>
    </contour>
  </outline>
</glyph>
<glyph name="Euro" format="2">
  <advance width="437"/>
  <unicode hex="20AC"/>
  <outline>
    <component base="Escyr" xOffset="20"/>
    <contour>
      <point x="-3" y="378" type="line"/>
      <point x="7" y="422" type="line"/>
      <point x="318" y="422" type="line"/>
      <point x="308" y="378" type="line"/>
    </contour>
    <contour>
      <point x="-3" y="292" type="line"/>
      <point x="7" y="336" type="line"/>
      <point x="298" y="336" type="line"/>
      <point x="288" y="292" type="line"/>
    </contour>
  </outline>
</glyph>
<glyph name="ruble" format="2">
  <advance width="492"/>
  <unicode hex="20BD"/>
  <outline>
    <component base="Ercyr" xOffset="0.224388"/>
    <contour>
      <point x="20" y="241" type="line"/>
      <point x="207" y="241" type="line"/>
      <point x="207" y="285" type="line"/>
      <point x="20" y="285" type="line"/>
    </contour>
    <contour>
      <point x="20" y="155" type="line"/>
      <point x="352" y="155" type="line"/>
      <point x="352" y="199" type="line"/>
      <point x="20" y="199" type="line"/>
    </contour>
  </outline>
</glyph>
<glyph name="numero" format="2">
  <advance width="773"/>
  <unicode hex="2116"/>
  <outline>
    <component base="N"/>
    <contour>
      <point x="478" y="587" type="curve" smooth="yes"/>
      <point x="478" y="535"/>
      <point x="506" y="464"/>
      <point x="599" y="464" type="curve" smooth="yes"/>
      <point x="694" y="464"/>
      <point x="723" y="536"/>
      <point x="723" y="587" type="curve" smooth="yes"/>
      <point x="723" y="637"/>
      <point x="694" y="706"/>
      <point x="599" y="706" type="curve" smooth="yes"/>
      <point x="506" y="706"/>
      <point x="478" y="637"/>
    </contour>
    <contour>
      <point x="491" y="384" type="line"/>
      <point x="710" y="384" type="line"/>
      <point x="710" y="424" type="line"/>
      <point x="491" y="424" type="line"/>
    </contour>
    <contour>
      <point x="491" y="314" type="line"/>
      <point x="710" y="314" type="line"/>
      <point x="710" y="354" type="line"/>
      <point x="491" y="354" type="line"/>
    </contour>
    <contour>
      <point x="600" y="678" type="curve" smooth="yes"/>
      <point x="634" y="678"/>
      <point x="634" y="621"/>
      <point x="634" y="586" type="curve" smooth="yes"/>
      <point x="634" y="551"/>
      <point x="634" y="492"/>
      <point x="600" y="492" type="curve" smooth="yes"/>
      <point x="567" y="492"/>
      <point x="567" y="551"/>
      <point x="567" y="586" type="curve" smooth="yes"/>
      <point x="567" y="621"/>
      <point x="567" y="678"/>
    </contour>
  </outline>
</glyph>
<glyph name="trademark" format="2">
  <advance width="441"/>
  <unicode hex="2122"/>
  <outline>
    <contour>
      <point x="343" y="700" type="line"/>
      <point x="309" y="581" type="line"/>
      <point x="275" y="700" type="line"/>
      <point x="203" y="700" type="line"/>
      <point x="203" y="676" type="line"/>
      <point x="222" y="676" type="line"/>
      <point x="210" y="522" type="line"/>
      <point x="190" y="522" type="line"/>
      <point x="190" y="498" type="line"/>
      <point x="252" y="498" type="line"/>
      <point x="252" y="522" type="line"/>
      <point x="233" y="522" type="line"/>
      <point x="243" y="652" type="line"/>
      <point x="290" y="497" type="line"/>
      <point x="309" y="497" type="line"/>
      <point x="355" y="654" type="line"/>
      <point x="365" y="522" type="line"/>
      <point x="346" y="522" type="line"/>
      <point x="346" y="498" type="line"/>
      <point x="434" y="498" type="line"/>
      <point x="434" y="522" type="line"/>
      <point x="411" y="522" type="line"/>
      <point x="399" y="677" type="line"/>
      <point x="418" y="677" type="line"/>
      <point x="418" y="700" type="line"/>
    </contour>
    <contour>
      <point x="54" y="522" type="line"/>
      <point x="54" y="498" type="line"/>
      <point x="141" y="498" type="line"/>
      <point x="141" y="522" type="line"/>
      <point x="121" y="522" type="line"/>
      <point x="121" y="677" type="line"/>
      <point x="154" y="666"/>
      <point x="166" y="632"/>
      <point x="168" y="622" type="curve"/>
      <point x="187" y="627" type="line"/>
      <point x="176" y="700" type="line"/>
      <point x="18" y="700" type="line"/>
      <point x="7" y="627" type="line"/>
      <point x="26" y="622" type="line"/>
      <point x="28" y="632"/>
      <point x="40" y="666"/>
      <point x="74" y="678" type="curve"/>
      <point x="74" y="522" type="line"/>
    </contour>
  </outline>
</glyph>
<glyph name="arrowleft" format="2">
  <advance width="754"/>
  <unicode hex="2190"/>
  <outline>
    <component base="half-arrow-tip" xScale="-1" xOffset="346" yOffset="28"/>
    <component base="half-arrow-tip" xScale="-1" yScale="-1" xOffset="346" yOffset="728"/>
    <contour>
      <point x="734" y="348" type="line"/>
      <point x="103" y="348" type="line"/>
      <point x="103" y="408" type="line"/>
      <point x="734" y="408" type="line"/>
    </contour>
  </outline>
</glyph>
<glyph name="minus" format="2">
  <advance width="340"/>
  <unicode hex="2212"/>
  <outline>
    <contour>
      <point x="30" y="330" type="line"/>
      <point x="30" y="374" type="line"/>
      <point x="310" y="374" type="line"/>
      <point x="310" y="330" type="line"/>
    </contour>
  </outline>
</glyph>
<glyph name="notequal" format="2">
  <advance width="701"/>
  <unicode hex="2260"/>
  <outline>
    <component base="equal"/>
    <contour>
      <point x="210" y="73" type="line"/>
      <point x="506" y="633" type="line"/>
      <point x="559" y="633" type="line"/>
      <point x="263" y="73" type="line"/>
    </contour>
  </outline>
</glyph>
<glyph name="A.alt1" format="2">
  <advance width="473"/>
  <outline>
    <contour>
      <point x="224" y="700" type="line"/>
      <point x="175" y="700" type="line"/>
      <point x="15" y="45" type="line"/>
      <point x="66" y="45" type="line"/>
    </contour>
    <contour>
      <point x="113" y="45" type="line"/>
      <point x="-4" y="45" type="line"/>
      <point x="12" y="0" type="line"/>
      <point x="113" y="0" type="line"/>
    </contour>
    <contour>
      <point x="144" y="700" type="line"/>
      <point x="261" y="205" type="line"/>
      <point x="100" y="205" type="line"/>
      <point x="90" y="160" type="line"/>
      <point x="272" y="160" type="line"/>
      <point x="299" y="45" type="line"/>
      <point x="248" y="45" type="line"/>
      <point x="248" y="0" type="line"/>
      <point x="479" y="0" type="line"/>
      <point x="479" y="45" type="line"/>
      <point x="444" y="45" type="line"/>
      <point x="289" y="700" type="line"/>
    </contour>
  </outline>
</glyph>
<glyph name="Acyr.alt2" format="2">
  <advance width="465"/>
  <outline>
    <contour>
      <point x="155" y="700" type="line"/>
      <point x="170" y="638" type="line"/>
      <point x="25" y="45" type="line"/>
      <point x="-10" y="45" type="line"/>
      <point x="-10" y="0" type="line"/>
      <point x="123" y="0" type="line"/>
      <point x="123" y="45" type="line"/>
      <point x="77" y="45" type="line"/>
      <point x="105" y="160" type="line"/>
      <point x="283" y="160" type="line"/>
      <point x="310" y="45" type="line"/>
      <point x="259" y="45" type="line"/>
      <point x="259" y="0" type="line"/>
      <point x="465" y="0" type="line"/>
      <point x="300" y="700" type="line"/>
    </contour>
    <contour>
      <point x="195" y="532" type="line"/>
      <point x="272" y="205" type="line"/>
      <point x="116" y="205" type="line"/>
    </contour>
  </outline>
</glyph>
<glyph name="Acyr.alt3" format="2">
  <advance width="453"/>
  <outline>
    <contour>
      <point x="111" y="45" type="line"/>
      <point x="65" y="45" type="line"/>
      <point x="93" y="160" type="line"/>
      <point x="271" y="160" type="line"/>
      <point x="298" y="45" type="line"/>
      <point x="247" y="45" type="line"/>
      <point x="247" y="0" type="line"/>
      <point x="453" y="0" type="line"/>
      <point x="288" y="700" type="line"/>
      <point x="143" y="700" type="line"/>
      <point x="158" y="638" type="line"/>
      <point x="13" y="45" type="line"/>
      <point x="-6" y="45" type="line"/>
      <point x="12" y="0" type="line"/>
      <point x="111" y="0" type="line"/>
    </contour>
    <contour>
      <point x="183" y="532" type="line"/>
      <point x="260" y="205" type="line"/>
      <point x="104" y="205" type="line"/>
    </contour>
  </outline>
</glyph>
<glyph name="Aring.alt1" format="2">
  <advance width="473"/>
  <outline>
    <component base="ring" xOffset="95" yOffset="-10"/>
    <contour>
      <point x="112" y="45" type="line"/>
      <point x="66" y="45" type="line"/>
      <point x="94" y="160" type="line"/>
      <point x="272" y="160" type="line"/>
      <point x="299" y="45" type="line"/>
      <point x="248" y="45" type="line"/>
      <point x="248" y="0" type="line"/>
      <point x="479" y="0" type="line"/>
      <point x="479" y="45" type="line"/>
      <point x="444" y="45" type="line"/>
      <point x="289" y="700" type="line"/>
      <point x="174" y="700" type="line"/>
      <point x="14" y="45" type="line"/>
      <point x="-4" y="45" type="line"/>
      <point x="18" y="0" type="line"/>
      <point x="112" y="0" type="line"/>
    </contour>
    <contour>
      <point x="184" y="533" type="line"/>
      <point x="261" y="205" type="line"/>
      <point x="105" y="205" type="line"/>
    </contour>
  </outline>
</glyph>
<glyph name="Aring.alt2" format="2">
  <advance width="471"/>
  <outline>
    <component base="ring" xOffset="111" yOffset="-10"/>
    <contour>
      <point x="128" y="45" type="line"/>
      <point x="82" y="45" type="line"/>
      <point x="110" y="160" type="line"/>
      <point x="288" y="160" type="line"/>
      <point x="315" y="45" type="line"/>
      <point x="264" y="45" type="line"/>
      <point x="264" y="0" type="line"/>
      <point x="471" y="0" type="line"/>
      <point x="305" y="700" type="line"/>
      <point x="190" y="700" type="line"/>
      <point x="30" y="45" type="line"/>
      <point x="-10" y="45" type="line"/>
      <point x="-10" y="0" type="line"/>
      <point x="128" y="0" type="line"/>
    </contour>
    <contour>
      <point x="200" y="533" type="line"/>
      <point x="277" y="205" type="line"/>
      <point x="121" y="205" type="line"/>
    </contour>
  </outline>
</glyph>
<glyph name="Elcyr.alt1" format="2">
  <advance width="501"/>
  <outline>
    <contour>
      <point x="130" y="11" type="curve" smooth="yes"/>
      <point x="162" y="30"/>
      <point x="173" y="63"/>
      <point x="181" y="169" type="curve" smooth="yes"/>
      <point x="183" y="205" type="line" smooth="yes"/>
      <point x="188" y="278"/>
      <point x="197" y="449"/>
      <point x="197" y="655" type="curve"/>
      <point x="293" y="655" type="line"/>
      <point x="293" y="45" type="line"/>
      <point x="248" y="45" type="line"/>
      <point x="248" y="0" type="line"/>
      <point x="479" y="0" type="line"/>
      <point x="479" y="45" type="line"/>
      <point x="434" y="45" type="line"/>
      <point x="434" y="655" type="line"/>
      <point x="479" y="655" type="line"/>
      <point x="479" y="700" type="line"/>
      <point x="82" y="700" type="line"/>
      <point x="82" y="655" type="line"/>
      <point x="149" y="655" type="line"/>
      <point x="149" y="454"/>
      <point x="140" y="289"/>
      <point x="138" y="261" type="curve" smooth="yes"/>
      <point x="136" y="213"/>
      <point x="133" y="134"/>
      <point x="99" y="134" type="curve" smooth="yes"/>
      <point x="80" y="134"/>
      <point x="62" y="160"/>
      <point x="51" y="210" type="curve"/>
      <point x="5" y="198" type="line"/>
      <point x="26" y="0" type="line"/>
      <point x="66" y="0" type="line" smooth="yes"/>
      <point x="91" y="0"/>
      <point x="110" y="0"/>
    </contour>
  </outline>
</glyph>
<glyph name="Escyr.old" format="2">
  <advance width="424"/>
  <outline>
    <contour>
      <point x="169" y="374" type="curve" smooth="yes"/>
      <point x="169" y="484"/>
      <point x="172.976" y="663"/>
      <point x="243.144" y="663" type="curve" smooth="yes"/>
      <point x="307.163" y="663"/>
      <point x="332.012" y="514"/>
      <point x="334" y="483.5" type="curve"/>
      <point x="379" y="483.5" type="line"/>
      <point x="389" y="668" type="line"/>
      <point x="382.605" y="672.4"/>
      <point x="325.054" y="712"/>
      <point x="243.546" y="712" type="curve" smooth="yes"/>
      <point x="59" y="712"/>
      <point x="24" y="509"/>
      <point x="24" y="357" type="curve" smooth="yes"/>
      <point x="24" y="205"/>
      <point x="59" y="-12"/>
      <point x="230.875" y="-12" type="curve" smooth="yes"/>
      <point x="390" y="-12"/>
      <point x="393" y="174"/>
      <point x="402" y="301" type="curve"/>
      <point x="357" y="305" type="line"/>
      <point x="350.727" y="189"/>
      <point x="322.072" y="88"/>
      <point x="256.47" y="88" type="curve" smooth="yes"/>
      <point x="170.988" y="88"/>
      <point x="169" y="256"/>
    </contour>
  </outline>
</glyph>
<glyph name="K.old" format="2">
  <advance width="529"/>
  <outline>
    <contour>
      <point x="335" y="527" type="line"/>
      <point x="226" y="375" type="line"/>
      <point x="233" y="358" type="line" smooth="yes"/>
      <point x="325" y="139"/>
      <point x="389" y="50"/>
      <point x="513" y="-33" type="curve"/>
      <point x="529" y="-26" type="line"/>
    </contour>
    <contour>
      <point x="210" y="315" type="line"/>
      <point x="449" y="655" type="line"/>
      <point x="496" y="655" type="line"/>
      <point x="496" y="700" type="line"/>
      <point x="339" y="700" type="line"/>
      <point x="339" y="655" type="line"/>
      <point x="390" y="655" type="line"/>
      <point x="210" y="387" type="line"/>
      <point x="210" y="656" type="line"/>
      <point x="255" y="656" type="line"/>
      <point x="255" y="701" type="line"/>
      <point x="24" y="701" type="line"/>
      <point x="24" y="656" type="line"/>
      <point x="68" y="656" type="line"/>
      <point x="68" y="45" type="line"/>
      <point x="23" y="45" type="line"/>
      <point x="23" y="0" type="line"/>
      <point x="254" y="0" type="line"/>
      <point x="254" y="45" type="line"/>
      <point x="210" y="45" type="line"/>
    </contour>
  </outline>
</glyph>
<glyph name="K.ss03" format="2">
  <advance width="562"/>
  <outline>
    <contour>
      <point x="210" y="315" type="line"/>
      <point x="247" y="368" type="line"/>
      <point x="246" y="366" type="line"/>
      <point x="359" y="45" type="line"/>
      <point x="324" y="45" type="line"/>
      <point x="324" y="0" type="line"/>
      <point x="545" y="0" type="line"/>
      <point x="545" y="45" type="line"/>
      <point x="511" y="45" type="line"/>
      <point x="348" y="511" type="line"/>
      <point x="449" y="655" type="line"/>
      <point x="496" y="655" type="line"/>
      <point x="496" y="700" type="line"/>
      <point x="339" y="700" type="line"/>
      <point x="339" y="655" type="line"/>
      <point x="390" y="655" type="line"/>
      <point x="210" y="387" type="line"/>
      <point x="210" y="656" type="line"/>
      <point x="255" y="656" type="line"/>
      <point x="255" y="701" type="line"/>
      <point x="24" y="701" type="line"/>
      <point x="24" y="656" type="line"/>
      <point x="68" y="656" type="line"/>
      <point x="68" y="45" type="line"/>
      <point x="23" y="45" type="line"/>
      <point x="23" y="0" type="line"/>
      <point x="254" y="0" type="line"/>
      <point x="254" y="45" type="line"/>
      <point x="210" y="45" type="line"/>
    </contour>
  </outline>
</glyph>
<glyph name="Kacyr.alt" format="2">
  <advance width="527"/>
  <outline>
    <contour>
      <point x="341" y="528" type="line"/>
      <point x="219" y="376" type="line"/>
      <point x="254.975" y="283.137" type="line" smooth="yes"/>
      <point x="344.053" y="53.2003"/>
      <point x="394.648" y="-17.1778"/>
      <point x="511" y="-73" type="curve"/>
      <point x="527" y="-66" type="line"/>
    </contour>
    <contour>
      <point x="210" y="315" type="line"/>
      <point x="449" y="655" type="line"/>
      <point x="496" y="655" type="line"/>
      <point x="496" y="700" type="line"/>
      <point x="329" y="700" type="line"/>
      <point x="329" y="655" type="line"/>
      <point x="380" y="655" type="line"/>
      <point x="210" y="387" type="line"/>
      <point x="210" y="656" type="line"/>
      <point x="255" y="656" type="line"/>
      <point x="255" y="701" type="line"/>
      <point x="24" y="701" type="line"/>
      <point x="24" y="656" type="line"/>
      <point x="68" y="656" type="line"/>
      <point x="68" y="45" type="line"/>
      <point x="23" y="45" type="line"/>
      <point x="23" y="0" type="line"/>
      <point x="254" y="0" type="line"/>
      <point x="254" y="45" type="line"/>
      <point x="210" y="45" type="line"/>
    </contour>
  </outline>
</glyph>
<glyph name="Kacyr.ss02" format="2">
  <advance width="560"/>
  <outline>
    <contour>
      <point x="210" y="45" type="line"/>
      <point x="210" y="353" type="line"/>
      <point x="258" y="353" type="line"/>
      <point x="356" y="0" type="line"/>
      <point x="538" y="0" type="line"/>
      <point x="538" y="45" type="line"/>
      <point x="494" y="45" type="line"/>
      <point x="399" y="398" type="line"/>
      <point x="297" y="398" type="line"/>
      <point x="322" y="536"/>
      <point x="347" y="595"/>
      <point x="399" y="595" type="curve" smooth="yes"/>
      <point x="421" y="595"/>
      <point x="449" y="585"/>
      <point x="469" y="532" type="curve"/>
      <point x="508" y="540" type="line"/>
      <point x="488" y="689" type="line"/>
      <point x="458" y="699"/>
      <point x="434" y="704"/>
      <point x="415" y="704" type="curve" smooth="yes"/>
      <point x="385" y="704"/>
      <point x="367" y="693"/>
      <point x="352" y="679" type="curve" smooth="yes"/>
      <point x="307" y="635"/>
      <point x="278" y="533"/>
      <point x="254" y="398" type="curve"/>
      <point x="210" y="398" type="line"/>
      <point x="210" y="656" type="line"/>
      <point x="255" y="656" type="line"/>
      <point x="255" y="701" type="line"/>
      <point x="24" y="701" type="line"/>
      <point x="24" y="656" type="line"/>
      <point x="68" y="656" type="line"/>
      <point x="68" y="45" type="line"/>
      <point x="23" y="45" type="line"/>
      <point x="23" y="0" type="line"/>
      <point x="254" y="0" type="line"/>
      <point x="254" y="45" type="line"/>
    </contour>
  </outline>
</glyph>
<glyph name="Ljecyr.alt1" format="2">
  <advance width="727"/>
  <outline>
    <component base="Softcyr" xOffset="226"/>
    <contour>
      <point x="130" y="11" type="curve" smooth="yes"/>
      <point x="162" y="30"/>
      <point x="173" y="63"/>
      <point x="181" y="169" type="curve" smooth="yes"/>
      <point x="183" y="205" type="line" smooth="yes"/>
      <point x="188" y="278"/>
      <point x="197" y="449"/>
      <point x="197" y="655" type="curve"/>
      <point x="293" y="655" type="line"/>
      <point x="293" y="45" type="line"/>
      <point x="248" y="45" type="line"/>
      <point x="248" y="0" type="line"/>
      <point x="429" y="0" type="line"/>
      <point x="434" y="45" type="line"/>
      <point x="434" y="655" type="line"/>
      <point x="479" y="655" type="line"/>
      <point x="479" y="700" type="line"/>
      <point x="82" y="700" type="line"/>
      <point x="82" y="655" type="line"/>
      <point x="149" y="655" type="line"/>
      <point x="149" y="454"/>
      <point x="140" y="289"/>
      <point x="138" y="261" type="curve" smooth="yes"/>
      <point x="136" y="213"/>
      <point x="133" y="134"/>
      <point x="99" y="134" type="curve" smooth="yes"/>
      <point x="80" y="134"/>
      <point x="62" y="160"/>
      <point x="51" y="210" type="curve"/>
      <point x="5" y="198" type="line"/>
      <point x="26" y="0" type="line"/>
      <point x="66" y="0" type="line" smooth="yes"/>
      <point x="91" y="0"/>
      <point x="110" y="0"/>
    </contour>
  </outline>
</glyph>
<glyph name="M.alt2" format="2">
  <advance width="634"/>
  <outline>
    <contour>
      <point x="13" y="-1" type="line"/>
      <point x="154" y="-1" type="line"/>
      <point x="154" y="45" type="line"/>
      <point x="105" y="45" type="line"/>
      <point x="136" y="555" type="line"/>
      <point x="269" y="0" type="line"/>
      <point x="298" y="0" type="line"/>
      <point x="442" y="561" type="line"/>
      <point x="475" y="45" type="line"/>
      <point x="430" y="45" type="line"/>
      <point x="430" y="0" type="line"/>
      <point x="618" y="0" type="line"/>
      <point x="577" y="655" type="line"/>
      <point x="619" y="655" type="line"/>
      <point x="619" y="700" type="line"/>
      <point x="433" y="700" type="line"/>
      <point x="328" y="291" type="line"/>
      <point x="229" y="700" type="line"/>
      <point x="51" y="700" type="line"/>
      <point x="51" y="655" type="line"/>
      <point x="93" y="655" type="line"/>
      <point x="57" y="44" type="line"/>
      <point x="13" y="44" type="line"/>
    </contour>
  </outline>
</glyph>
<glyph name="Q.swsh" format="2">
  <advance width="503"/>
  <outline>
    <contour>
      <point x="250.507" y="670" type="curve" smooth="yes"/>
      <point x="322.007" y="670"/>
      <point x="323" y="554"/>
      <point x="323" y="354" type="curve" smooth="yes"/>
      <point x="323" y="154"/>
      <point x="322.007" y="30"/>
      <point x="250.507" y="30" type="curve" smooth="yes"/>
      <point x="180" y="30"/>
      <point x="180" y="154"/>
      <point x="180" y="354" type="curve" smooth="yes"/>
      <point x="180" y="554"/>
      <point x="180" y="670"/>
    </contour>
    <contour>
      <point x="30" y="355" type="curve" smooth="yes"/>
      <point x="30" y="203"/>
      <point x="55" y="-12"/>
      <point x="250.507" y="-12" type="curve" smooth="yes"/>
      <point x="446.826" y="-12"/>
      <point x="473" y="203"/>
      <point x="473" y="354.5" type="curve" smooth="yes"/>
      <point x="473" y="506"/>
      <point x="446.826" y="712"/>
      <point x="250.507" y="712" type="curve" smooth="yes"/>
      <point x="55" y="712"/>
      <point x="30" y="507"/>
    </contour>
    <contour>
      <point x="279.306" y="-3" type="curve"/>
      <point x="171" y="3" type="line"/>
      <point x="243.072" y="-29.586"/>
      <point x="284.967" y="-76.1566"/>
      <point x="323.06" y="-119.106" type="curve" smooth="yes"/>
      <point x="379.589" y="-182.842"/>
      <point x="425.673" y="-226.694"/>
      <point x="509.514" y="-226.771" type="curve" smooth="yes"/>
      <point x="588.894" y="-226.844"/>
      <point x="654.263" y="-187.632"/>
      <point x="752" y="-105" type="curve"/>
      <point x="744" y="-84" type="line"/>
      <point x="692.558" y="-113.032"/>
      <point x="643.969" y="-123.351"/>
      <point x="597.723" y="-123.351" type="curve" smooth="yes"/>
      <point x="530.722" y="-123.351"/>
      <point x="488.428" y="-100.642"/>
      <point x="430.782" y="-66.0596" type="curve" smooth="yes"/>
      <point x="379.726" y="-35.4312"/>
      <point x="337.972" y="-15.5545"/>
    </contour>
  </outline>
</glyph>
<glyph name="Shchacyr.ss01" format="2">
  <advance width="806"/>
  <outline>
    <contour>
      <point x="755" y="0" type="line"/>
      <point x="755" y="2.586"/>
      <point x="754.136" y="3.7795"/>
      <point x="752.545" y="3.7604" type="curve" smooth="yes"/>
      <point x="735.23" y="3.5521"/>
      <point x="631.872" y="-140.472"/>
      <point x="622" y="-196" type="curve"/>
      <point x="745" y="-250" type="line"/>
      <point x="745" y="-114"/>
      <point x="799" y="-11.4"/>
      <point x="805" y="0" type="curve"/>
      <point x="805" y="45" type="line"/>
      <point x="722" y="45" type="line"/>
      <point x="722" y="655" type="line"/>
      <point x="767" y="655" type="line"/>
      <point x="767" y="700" type="line"/>
      <point x="536" y="700" type="line"/>
      <point x="536" y="655" type="line"/>
      <point x="581" y="655" type="line"/>
      <point x="581" y="45" type="line"/>
      <point x="428.923" y="45" type="line"/>
      <point x="472.246" y="143"/>
      <point x="488" y="211"/>
      <point x="488" y="264.058" type="curve" smooth="yes"/>
      <point x="488" y="308.405"/>
      <point x="476.529" y="340.655"/>
      <point x="459.468" y="380.819" type="curve" smooth="yes"/>
      <point x="442.4" y="421"/>
      <point x="424" y="464.325"/>
      <point x="424" y="541" type="curve" smooth="yes"/>
      <point x="424" y="684"/>
      <point x="445.268" y="720.9"/>
      <point x="447.631" y="725" type="curve"/>
      <point x="430.892" y="725" type="line"/>
      <point x="368.17" y="662.17"/>
      <point x="305" y="506.327"/>
      <point x="305" y="416.264" type="curve" smooth="yes"/>
      <point x="305" y="370.481"/>
      <point x="321.324" y="325.359"/>
      <point x="337.385" y="281.319" type="curve" smooth="yes"/>
      <point x="353.256" y="237.802"/>
      <point x="369" y="194.631"/>
      <point x="369" y="149" type="curve" smooth="yes"/>
      <point x="369" y="111.462"/>
      <point x="367.319" y="80.5162"/>
      <point x="354" y="45" type="curve"/>
      <point x="209" y="45" type="line"/>
      <point x="209" y="655" type="line"/>
      <point x="254" y="655" type="line"/>
      <point x="254" y="700" type="line"/>
      <point x="23" y="700" type="line"/>
      <point x="23" y="655" type="line"/>
      <point x="68.5" y="655" type="line"/>
      <point x="68.5" y="45" type="line"/>
      <point x="24" y="45" type="line"/>
      <point x="24" y="0" type="line"/>
    </contour>
  </outline>
</glyph>
<glyph name="Tsecyr.ss01" format="2">
  <advance width="570"/>
  <outline>
    <contour>
      <point x="23" y="0" type="line"/>
      <point x="23" y="45" type="line"/>
      <point x="68" y="45" type="line"/>
      <point x="68" y="655" type="line"/>
      <point x="23" y="655" type="line"/>
      <point x="23" y="700" type="line"/>
      <point x="254" y="700" type="line"/>
      <point x="254" y="655" type="line"/>
      <point x="209" y="655" type="line"/>
      <point x="209" y="45" type="line"/>
      <point x="344" y="45" type="line"/>
      <point x="344" y="655" type="line"/>
      <point x="299" y="655" type="line"/>
      <point x="299" y="700" type="line"/>
      <point x="530" y="700" type="line"/>
      <point x="530" y="655" type="line"/>
      <point x="485" y="655" type="line"/>
      <point x="485" y="45" type="line"/>
      <point x="569" y="45" type="line"/>
      <point x="569" y="0" type="line"/>
      <point x="568" y="0"/>
      <point x="508" y="-114"/>
      <point x="508" y="-250" type="curve"/>
      <point x="385" y="-196" type="line"/>
      <point x="394" y="-146"/>
      <point x="479" y="-23"/>
      <point x="508" y="0" type="curve"/>
    </contour>
  </outline>
</glyph>
<glyph name="Ucyr.alt1" format="2">
  <advance width="456"/>
  <outline>
    <contour>
      <point x="133" y="214" type="line"/>
      <point x="16" y="655" type="line"/>
      <point x="-18" y="655" type="line"/>
      <point x="-18" y="700" type="line"/>
      <point x="192" y="700" type="line"/>
      <point x="192" y="655" type="line"/>
      <point x="157" y="655" type="line"/>
      <point x="254" y="267" type="line"/>
      <point x="266" y="267" type="line"/>
      <point x="362" y="655" type="line"/>
      <point x="329" y="655" type="line"/>
      <point x="329" y="700" type="line"/>
      <point x="444" y="700" type="line"/>
      <point x="444" y="655" type="line"/>
      <point x="412" y="655" type="line"/>
      <point x="293" y="176" type="line" smooth="yes"/>
      <point x="270" y="84"/>
      <point x="250" y="-21"/>
      <point x="166" y="-21" type="curve" smooth="yes"/>
      <point x="143" y="-21"/>
      <point x="120" y="-17"/>
      <point x="94" y="-8" type="curve"/>
      <point x="50" y="159" type="line"/>
      <point x="87" y="177" type="line"/>
      <point x="128" y="98"/>
      <point x="148" y="93"/>
      <point x="179" y="93" type="curve" smooth="yes"/>
      <point x="224" y="93"/>
      <point x="235" y="138"/>
      <point x="253" y="214" type="curve"/>
    </contour>
  </outline>
</glyph>
<glyph name="Yacyr.alt" format="2">
  <advance width="500"/>
  <outline>
    <contour>
      <point x="291" y="44" type="line"/>
      <point x="246" y="44" type="line"/>
      <point x="246" y="-1" type="line"/>
      <point x="477" y="-1" type="line"/>
      <point x="477" y="44" type="line"/>
      <point x="433" y="44" type="line"/>
      <point x="433" y="654" type="line"/>
      <point x="477" y="654" type="line"/>
      <point x="477" y="700" type="line"/>
      <point x="291" y="700" type="line"/>
      <point x="150" y="699"/>
      <point x="42" y="625"/>
      <point x="42" y="485" type="curve" smooth="yes"/>
      <point x="42" y="415"/>
      <point x="78" y="364"/>
      <point x="128" y="331" type="curve"/>
      <point x="117" y="290"/>
      <point x="52" y="63"/>
      <point x="-6" y="-68" type="curve"/>
      <point x="10" y="-77" type="line"/>
      <point x="144" y="17"/>
      <point x="201" y="82"/>
      <point x="261" y="284" type="curve"/>
      <point x="271" y="283"/>
      <point x="281" y="282"/>
      <point x="291" y="282" type="curve"/>
    </contour>
    <contour>
      <point x="177" y="497" type="curve" smooth="yes"/>
      <point x="177" y="572"/>
      <point x="208" y="651"/>
      <point x="291" y="654" type="curve"/>
      <point x="291" y="329" type="line"/>
      <point x="205" y="346"/>
      <point x="177" y="426"/>
    </contour>
  </outline>
</glyph>
<glyph name="Zhecyr.alt" format="2">
  <advance width="745"/>
  <outline>
    <contour>
      <point x="444" y="656" type="line"/>
      <point x="489" y="656" type="line"/>
      <point x="489" y="701" type="line"/>
      <point x="257" y="701" type="line"/>
      <point x="257" y="656" type="line"/>
      <point x="302" y="656" type="line"/>
      <point x="302" y="45" type="line"/>
      <point x="258" y="45" type="line"/>
      <point x="258" y="0" type="line"/>
      <point x="489" y="0" type="line"/>
      <point x="489" y="45" type="line"/>
      <point x="444" y="45" type="line"/>
    </contour>
    <contour>
      <point x="436" y="297" type="line"/>
      <point x="578" y="507" type="line"/>
      <point x="672" y="656" type="line"/>
      <point x="713" y="656" type="line"/>
      <point x="713" y="701" type="line"/>
      <point x="560" y="701" type="line"/>
      <point x="560" y="656" type="line"/>
      <point x="607" y="656" type="line"/>
      <point x="436" y="371" type="line"/>
    </contour>
    <contour>
      <point x="310" y="297" type="line"/>
      <point x="310" y="371" type="line"/>
      <point x="139" y="656" type="line"/>
      <point x="186" y="656" type="line"/>
      <point x="186" y="701" type="line"/>
      <point x="33" y="701" type="line"/>
      <point x="33" y="656" type="line"/>
      <point x="74" y="656" type="line"/>
      <point x="166" y="510" type="line"/>
    </contour>
    <contour>
      <point x="579" y="535" type="line"/>
      <point x="466" y="372" type="line"/>
      <point x="488.271" y="300.775" type="line" smooth="yes"/>
      <point x="543.352" y="124.62"/>
      <point x="576.782" y="14.2903"/>
      <point x="731" y="-77" type="curve"/>
      <point x="747" y="-70" type="line"/>
    </contour>
    <contour>
      <point x="167" y="535" type="line"/>
      <point x="-1" y="-70" type="line"/>
      <point x="15" y="-77" type="line"/>
      <point x="169.218" y="14.2903"/>
      <point x="202.648" y="124.62"/>
      <point x="257.729" y="300.775" type="curve" smooth="yes"/>
      <point x="280" y="372" type="line"/>
    </contour>
  </outline>
</glyph>
<glyph name="Zhecyr.ss02" format="2">
  <advance width="828"/>
  <outline>
    <contour>
      <point x="211" y="0" type="line"/>
      <point x="308" y="353" type="line"/>
      <point x="346" y="353" type="line"/>
      <point x="346" y="45" type="line"/>
      <point x="300" y="45" type="line"/>
      <point x="300" y="0" type="line"/>
      <point x="532" y="0" type="line"/>
      <point x="532" y="45" type="line"/>
      <point x="488" y="45" type="line"/>
      <point x="488" y="353" type="line"/>
      <point x="526" y="353" type="line"/>
      <point x="623" y="0" type="line"/>
      <point x="806" y="0" type="line"/>
      <point x="806" y="45" type="line"/>
      <point x="762" y="45" type="line"/>
      <point x="666" y="398" type="line"/>
      <point x="575" y="398" type="line"/>
      <point x="600" y="536"/>
      <point x="625" y="595"/>
      <point x="677" y="595" type="curve" smooth="yes"/>
      <point x="699" y="595"/>
      <point x="723" y="585"/>
      <point x="743" y="532" type="curve"/>
      <point x="781" y="540" type="line"/>
      <point x="761" y="689" type="line"/>
      <point x="731" y="699"/>
      <point x="706" y="704"/>
      <point x="686" y="704" type="curve" smooth="yes"/>
      <point x="655" y="704"/>
      <point x="635" y="693"/>
      <point x="620" y="679" type="curve" smooth="yes"/>
      <point x="575" y="635"/>
      <point x="554" y="533"/>
      <point x="531" y="398" type="curve"/>
      <point x="488" y="398" type="line"/>
      <point x="488" y="656" type="line"/>
      <point x="532" y="656" type="line"/>
      <point x="532" y="701" type="line"/>
      <point x="301" y="701" type="line"/>
      <point x="301" y="656" type="line"/>
      <point x="346" y="656" type="line"/>
      <point x="346" y="398" type="line"/>
      <point x="303" y="398" type="line"/>
      <point x="280" y="533"/>
      <point x="259" y="635"/>
      <point x="214" y="679" type="curve" smooth="yes"/>
      <point x="199" y="693"/>
      <point x="179" y="704"/>
      <point x="148" y="704" type="curve" smooth="yes"/>
      <point x="128" y="704"/>
      <point x="103" y="699"/>
      <point x="73" y="689" type="curve"/>
      <point x="53" y="540" type="line"/>
      <point x="91" y="532" type="line"/>
      <point x="111" y="585"/>
      <point x="135" y="595"/>
      <point x="157" y="595" type="curve" smooth="yes"/>
      <point x="209" y="595"/>
      <point x="234" y="536"/>
      <point x="259" y="398" type="curve"/>
      <point x="168" y="398" type="line"/>
      <point x="72" y="45" type="line"/>
      <point x="28" y="45" type="line"/>
      <point x="28" y="0" type="line"/>
    </contour>
  </outline>
</glyph>
<glyph name="Zhecyr.ss03" format="2">
  <advance width="798"/>
  <outline>
    <contour>
      <point x="470" y="656" type="line"/>
      <point x="515" y="656" type="line"/>
      <point x="515" y="701" type="line"/>
      <point x="283" y="701" type="line"/>
      <point x="283" y="656" type="line"/>
      <point x="328" y="656" type="line"/>
      <point x="328" y="45" type="line"/>
      <point x="284" y="45" type="line"/>
      <point x="284" y="0" type="line"/>
      <point x="515" y="0" type="line"/>
      <point x="515" y="45" type="line"/>
      <point x="470" y="45" type="line"/>
    </contour>
    <contour>
      <point x="462" y="303" type="line"/>
      <point x="698" y="656" type="line"/>
      <point x="739" y="656" type="line"/>
      <point x="739" y="701" type="line"/>
      <point x="591" y="701" type="line"/>
      <point x="591" y="656" type="line"/>
      <point x="638" y="656" type="line"/>
      <point x="462" y="381" type="line"/>
    </contour>
    <contour>
      <point x="336" y="303" type="line"/>
      <point x="336" y="381" type="line"/>
      <point x="160" y="656" type="line"/>
      <point x="207" y="656" type="line"/>
      <point x="207" y="701" type="line"/>
      <point x="59" y="701" type="line"/>
      <point x="59" y="656" type="line"/>
      <point x="100" y="656" type="line"/>
    </contour>
    <contour>
      <point x="598" y="556" type="line"/>
      <point x="497" y="401" type="line"/>
      <point x="595" y="45" type="line"/>
      <point x="560" y="45" type="line"/>
      <point x="560" y="0" type="line"/>
      <point x="781" y="0" type="line"/>
      <point x="781" y="45" type="line"/>
      <point x="747" y="45" type="line"/>
    </contour>
    <contour>
      <point x="200" y="556" type="line"/>
      <point x="51" y="45" type="line"/>
      <point x="17" y="45" type="line"/>
      <point x="17" y="0" type="line"/>
      <point x="238" y="0" type="line"/>
      <point x="238" y="45" type="line"/>
      <point x="203" y="45" type="line"/>
      <point x="301" y="401" type="line"/>
    </contour>
  </outline>
</glyph>
<glyph name="_Zhe_half" format="2">
  <advance width="374"/>
  <outline>
    <contour>
      <point x="16" y="296" type="line"/>
      <point x="53" y="352" type="line"/>
      <point x="130" y="131"/>
      <point x="189" y="8"/>
      <point x="328" y="-78" type="curve"/>
      <point x="347" y="-64" type="line"/>
      <point x="298" y="59"/>
      <point x="272" y="135"/>
      <point x="160" y="514" type="curve"/>
      <point x="254" y="656" type="line" name=".sk5"/>
      <point x="298" y="656" type="line"/>
      <point x="298" y="700" type="line"/>
      <point x="138" y="700" type="line"/>
      <point x="138" y="656" type="line"/>
      <point x="187" y="656" type="line"/>
      <point x="16" y="369" type="line"/>
    </contour>
  </outline>
</glyph>
<glyph name="_corner.s_De" format="2">
  <advance width="195"/>
  <anchor x="109" y="0" name="origin"/>
  <anchor x="0" y="0" name="left"/>
  <anchor x="109" y="44" name="right"/>
  <outline>
    <contour>
      <point x="0" y="0" type="move"/>
      <point x="107" y="-5"/>
      <point x="124" y="-93"/>
      <point x="137" y="-168" type="curve"/>
      <point x="181" y="-171" type="line"/>
      <point x="192" y="44" type="line"/>
      <point x="109" y="44" type="line"/>
    </contour>
  </outline>
</glyph>
<glyph name="_corner.s_I" format="2">
  <advance width="64"/>
  <anchor x="44" y="0" name="origin"/>
  <anchor x="44" y="44" name="left"/>
  <anchor x="64" y="0" name="right"/>
  <outline>
    <contour>
      <point x="44" y="44" type="move"/>
      <point x="0" y="44" type="line"/>
      <point x="0" y="0" type="line"/>
      <point x="64" y="0" type="line"/>
    </contour>
  </outline>
</glyph>
<glyph name=".notdef" format="2">
  <advance width="573"/>
  <outline>
    <contour>
      <point x="325" y="207" type="curve" smooth="yes"/>
      <point x="325" y="237"/>
      <point x="305" y="257"/>
      <point x="278" y="257" type="curve" smooth="yes"/>
      <point x="250" y="257"/>
      <point x="228" y="240"/>
      <point x="228" y="210" type="curve"/>
      <point x="228" y="181"/>
      <point x="248" y="160"/>
      <point x="275" y="160" type="curve" smooth="yes"/>
      <point x="303" y="160"/>
      <point x="325" y="178"/>
    </contour>
    <contour>
      <point x="68" y="0" type="line"/>
      <point x="505" y="0" type="line"/>
      <point x="505" y="700" type="line"/>
      <point x="68" y="700" type="line"/>
    </contour>
    <contour>
      <point x="239" y="394" type="line"/>
      <point x="300" y="402"/>
      <point x="331" y="456"/>
      <point x="331" y="499" type="curve"/>
      <point x="331" y="503"/>
      <point x="331" y="506"/>
      <point x="330" y="510" type="curve" smooth="yes"/>
      <point x="327" y="537"/>
      <point x="310" y="552"/>
      <point x="290" y="552" type="curve"/>
      <point x="284" y="552" type="line"/>
      <point x="242" y="546"/>
      <point x="223" y="479"/>
      <point x="222" y="450" type="curve"/>
      <point x="197" y="447" type="line"/>
      <point x="172" y="549" type="line"/>
      <point x="200" y="570"/>
      <point x="241" y="581"/>
      <point x="278" y="581" type="curve" smooth="yes"/>
      <point x="349" y="581"/>
      <point x="399" y="540"/>
      <point x="399" y="470" type="curve" smooth="yes"/>
      <point x="399" y="412"/>
      <point x="365" y="355"/>
      <point x="277" y="330" type="curve"/>
      <point x="284" y="287" type="line"/>
      <point x="256" y="282" type="line"/>
    </contour>
    <contour>
      <point x="114" y="45" type="line"/>
      <point x="114" y="655" type="line"/>
      <point x="459" y="655" type="line"/>
      <point x="459" y="45" type="line"/>
    </contour>
  </outline>
</glyph>
<glyph name="half-arrow-tip" format="2">
  <advance width="351"/>
  <outline>
    <contour>
      <point x="149" y="321" type="line"/>
      <point x="93" y="267"/>
      <point x="56" y="210"/>
      <point x="43" y="148" type="curve"/>
      <point x="53" y="139" type="line"/>
      <point x="185" y="294"/>
      <point x="311.9" y="330.9"/>
      <point x="326" y="335" type="curve"/>
      <point x="326" y="351" type="line"/>
      <point x="229" y="351" type="line"/>
    </contour>
  </outline>
</glyph>
<glyph name="half-greater-than" format="2">
  <advance width="701"/>
  <outline>
    <contour>
      <point x="195" y="350" type="line"/>
      <point x="605" y="568" type="line"/>
      <point x="582" y="612" type="line"/>
      <point x="89" y="350" type="line"/>
    </contour>
  </outline>
</glyph>
<glyph name="half-guillemet" format="2">
  <advance width="310"/>
  <outline>
    <contour>
      <point x="128" y="350" type="line"/>
      <point x="22" y="350" type="line"/>
      <point x="22" y="323" type="line"/>
      <point x="265" y="148" type="line"/>
      <point x="265" y="182" type="line"/>
    </contour>
  </outline>
</glyph>
<glyph name="kratka" format="2">
  <advance width="333"/>
  <outline>
    <contour>
      <point x="159" y="866" type="curve" smooth="yes"/>
      <point x="129" y="866"/>
      <point x="91" y="846"/>
      <point x="91" y="803" type="curve" smooth="yes"/>
      <point x="91" y="760"/>
      <point x="131" y="744"/>
      <point x="163" y="744" type="curve" smooth="yes"/>
      <point x="220" y="744"/>
      <point x="270" y="793"/>
      <point x="283" y="860" type="curve"/>
      <point x="262" y="871" type="line"/>
      <point x="250" y="846"/>
      <point x="234" y="823"/>
      <point x="206" y="819" type="curve"/>
      <point x="207" y="845"/>
      <point x="190" y="866"/>
    </contour>
  </outline>
</glyph>
<glyph name="leaf-of-asterisk" format="2">
  <advance width="450"/>
  <outline>
    <contour>
      <point x="222" y="516" type="line"/>
      <point x="242" y="516" type="line"/>
      <point x="298" y="690" type="line"/>
      <point x="166" y="690" type="line"/>
    </contour>
  </outline>
</glyph>
<glyph name="left-round-bracket" format="2">
  <advance width="300"/>
  <outline>
    <contour>
      <point x="13" y="798" type="line"/>
      <point x="130" y="717"/>
      <point x="210" y="540"/>
      <point x="210" y="338" type="curve" smooth="yes"/>
      <point x="210" y="136"/>
      <point x="130" y="-39"/>
      <point x="13" y="-119" type="curve"/>
      <point x="-10" y="-86" type="line"/>
      <point x="91" y="-18"/>
      <point x="148" y="146"/>
      <point x="148" y="340" type="curve" smooth="yes"/>
      <point x="148" y="530"/>
      <point x="93" y="694"/>
      <point x="-8" y="763" type="curve"/>
    </contour>
  </outline>
</glyph>
<glyph name="long-haf-arrow-tip" format="2">
  <advance width="333"/>
  <outline>
    <contour>
      <point x="53" y="379" type="line"/>
      <point x="320" y="379" type="line"/>
      <point x="320" y="371" type="line"/>
      <point x="-53" y="227" type="line"/>
      <point x="-63" y="236" type="line"/>
    </contour>
  </outline>
</glyph>
<glyph name="longarrowend" format="2">
  <advance width="797"/>
  <outline>
    <contour>
      <point x="13" y="396.5" type="line"/>
      <point x="837" y="396.5" type="line"/>
      <point x="837" y="331.5" type="line"/>
      <point x="13" y="331.5" type="line"/>
    </contour>
    <contour>
      <point x="455" y="338" type="line"/>
      <point x="407" y="238" type="line"/>
      <point x="49" y="212" type="line"/>
      <point x="93" y="338" type="line"/>
    </contour>
    <contour>
      <point x="455" y="391" type="line"/>
      <point x="407" y="491" type="line"/>
      <point x="49" y="517" type="line"/>
      <point x="93" y="391" type="line"/>
    </contour>
  </outline>
</glyph>
<glyph name="longarrowtip" format="2">
  <advance width="949"/>
  <outline>
    <component base="long-haf-arrow-tip" xOffset="597" yOffset="-12"/>
    <component base="long-haf-arrow-tip" yScale="-1" xOffset="597" yOffset="743"/>
    <contour>
      <point x="-60" y="397" type="line"/>
      <point x="784" y="397" type="line"/>
      <point x="784" y="332" type="line"/>
      <point x="-60" y="332" type="line"/>
    </contour>
  </outline>
</glyph>
<glyph name="t-arm" format="2">
  <advance width="531"/>
  <outline>
    <contour>
      <point x="476" y="440" type="curve"/>
      <point x="518" y="448" type="line"/>
      <point x="487" y="700" type="line"/>
      <point x="266" y="700" type="line"/>
      <point x="266" y="660" type="line"/>
      <point x="301.789" y="659.508" type="line"/>
      <point x="409" y="647"/>
      <point x="465" y="480"/>
    </contour>
  </outline>
</glyph>
